<svg id="Map" xmlns="http://www.w3.org/2000/svg" xmlns:xlink="http://www.w3.org/1999/xlink" viewBox="0 0 600 400"><defs><style>.cls-1,.cls-28,.cls-3,.cls-4,.cls-5,.cls-51,.cls-7,.cls-8,.cls-9{fill:none;}.cls-2{fill:#fbe6d3;}.cls-3,.cls-4,.cls-8{stroke:#ee845e;}.cls-3,.cls-4,.cls-5,.cls-8,.cls-9{stroke-linecap:round;}.cls-3,.cls-4,.cls-7,.cls-8,.cls-9{stroke-linejoin:round;}.cls-4,.cls-9{stroke-width:2.83px;}.cls-5{stroke:#a8cfdc;}.cls-5,.cls-8{stroke-width:2px;}.cls-6{fill:#a8cfdc;}.cls-7{stroke:#7f7f7f;stroke-width:2.39px;}.cls-28,.cls-9{stroke:#cd4f41;}.cls-10,.cls-30{fill:#76c0cd;}.cls-10,.cls-51{stroke:#000;}.cls-10{stroke-width:0.75px;}.cls-11,.cls-12,.cls-14,.cls-17,.cls-20,.cls-29,.cls-34,.cls-39,.cls-40{isolation:isolate;}.cls-12,.cls-52{font-size:6px;}.cls-12,.cls-14,.cls-17,.cls-29,.cls-45,.cls-46,.cls-52,.cls-59{font-family:Roboto-Bold, Roboto;}.cls-12,.cls-14,.cls-17,.cls-29,.cls-34,.cls-45,.cls-46,.cls-52,.cls-54,.cls-59{font-weight:700;}.cls-13,.cls-14,.cls-17,.cls-39,.cls-40,.cls-50{fill:#a0383a;}.cls-14,.cls-46,.cls-53,.cls-55{font-size:4px;}.cls-15{letter-spacing:-0.01em;}.cls-16{letter-spacing:0.02em;}.cls-17{font-size:23.25px;}.cls-18{letter-spacing:-0.02em;}.cls-19{opacity:0.69;}.cls-20,.cls-25{font-size:5.12px;}.cls-20,.cls-25,.cls-55{font-family:Roboto-Regular, Roboto;}.cls-21{letter-spacing:-0.01em;}.cls-22{letter-spacing:-0.01em;}.cls-23{letter-spacing:-0.06em;}.cls-24{letter-spacing:0em;}.cls-26{letter-spacing:-0.01em;}.cls-27{letter-spacing:0em;}.cls-29{font-size:10px;stroke-width:0.08px;}.cls-29,.cls-49,.cls-56{fill:#cd4f41;}.cls-29,.cls-32,.cls-48,.cls-49,.cls-50{stroke:#fff;}.cls-31{clip-path:url(#clip-path);}.cls-32,.cls-34,.cls-48{fill:#ee845e;}.cls-32{stroke-width:0.08px;}.cls-33{fill:#f8d2c9;}.cls-34{font-size:7px;}.cls-34,.cls-54{font-family:Roboto-BoldItalic, Roboto;}.cls-34,.cls-53,.cls-54{font-style:italic;}.cls-35{letter-spacing:-0.01em;}.cls-36{letter-spacing:-0.01em;}.cls-37{letter-spacing:-0.01em;}.cls-38{letter-spacing:-0.01em;}.cls-39,.cls-40{font-size:6.08px;font-family:Roboto-Medium, Roboto;}.cls-40{letter-spacing:-0.01em;}.cls-41{letter-spacing:0em;}.cls-42{letter-spacing:-0.01em;}.cls-43{letter-spacing:0em;}.cls-44{letter-spacing:-0.02em;}.cls-45{font-size:5px;}.cls-47{clip-path:url(#clip-path-2);}.cls-48,.cls-49{stroke-width:0.08px;}.cls-50,.cls-51{stroke-opacity:0;stroke-width:1.5px;}.cls-53{font-family:Roboto-MediumItalic, Roboto;}.cls-54{font-size:2px;}.cls-57{letter-spacing:-0.01em;}.cls-58{letter-spacing:-0.01em;}.cls-59{font-size:3px;}</style><clipPath id="clip-path"><rect class="cls-1" x="5" y="5" width="113.08" height="113.08"/></clipPath><clipPath id="clip-path-2"><rect class="cls-1" x="5" y="121.36" width="112.6" height="112.6"/></clipPath></defs><title>Mapa Oruro</title><g id="Land"><path class="cls-2" d="M0,400H600V0H0Z"/></g><g id="Airport-Taxiway"><path class="cls-3" d="M574,214.8h3.42l6.86.43.86,1.71m-7.72-2.14-.42-1.72.42-.85-.42-1.72.42-2.57,1.29-6h5.57l1.71-1.28m-3,70.26,1.72-1.28-1.29-4.29M574,210.08l2.14.43H577m9-6.42-1.71-2.15M574,212.66l3,.42m-4.72-9.42,3.86,4.28h1.28m6.86,7.29,1.28-2.15"/></g><g id="Airport-Runway"><path class="cls-4" d="M590.74,82,586,200.66v3.43l-.43,9-.42,3.86-1.72,48.41-.43,5.57"/></g><g id="River"><path class="cls-5" d="M108.3,385.75c0-4.94,2-14.83,1.29-19.71-.36-2.38-3-6.63-3.43-9-1.29-7.61,1.45-23.16.86-30.85-.55-7.16-2.64-21.54-5.14-28.27-.74-2-3.69-5.26-4.29-7.29-3.19-10.69-2.14-44.56-2.14-44.56s6.47-19.07,7.28-25.7c.42-3.4,1.47-10.86-.43-13.71-1.43-2.15-6.92-3.63-9.42-4.29-4.89-1.28-16.58,1.88-20.14-1.71-.93-.94-.32-4.23-1.28-5.14-.4-.38-1.77,0-2.15-.43-13-13.33-.42-74.55-.42-74.55l33-35.56-45-20.14-3-2.14L50.46,49l3.43-14.14,15-18,22.7-7.71L100.71,1m1.59,209.08.43,10.29-7.28,25.7s-1,33.87,2.14,44.56c.6,2,3.55,5.31,4.29,7.29,2.5,6.73,4.59,21.11,5.14,28.27.59,7.69-2.15,23.24-.86,30.85.4,2.37,3.07,6.62,3.43,9,.73,4.88.24,15-1.29,19.71-1.3,4-8,10.06-9,14.14a7.1,7.1,0,0,0,.12,1.11"/></g><g id="River-1"><path class="cls-6" d="M94.16,195.09c1.5-2.22,8.82-1.89,10.71,0s-1.82,8.46,0,10.28c.53.53,2.47-.53,3,0,5.38,5.38.95,22.88,0,30.42s-6.58,22.33-7.71,30c-.56,3.82,2.55,12.54,0,15.43-.57.65-2.57.38-3.43.43-3.74.23-11.29.57-15,0-2.11-.33-6.58-1.13-8.14-2.58s-3.33-6.26-3.43-8.56c-.18-4.37,2.78-13,5.14-16.71a12,12,0,0,1,3.86-3.43c1.08-.47,3.81.34,4.71-.43,1.47-1.25,1.45-5.71,2.57-7.28.8-1.12,3.54-2.28,4.29-3.43,1.34-2,2.45-7,2.57-9.43.25-5.1-4-15.06-3.43-20.13.16-1.39,2.87-4,2.14-5.15-2.68-4.41-16.63,1.63-20.56-1.71-1.39-1.18-1.62-6.45,0-7.28,1.3-.66,3.37,2.86,4.71,3.42,2.19.9,7.09-1.25,9.42-.85,1.51.26,4,2.79,5.57,2.57A6.4,6.4,0,0,0,95,197.23C95.15,196.67,93.84,195.57,94.16,195.09Z"/></g><g id="Lake"><path class="cls-6" d="M118.16,242.22c0,2.36-.45,7.45.85,9.42,1.61,2.44,7.37,5.38,10.29,5.57,4.77.32,13.64-5.19,18.42-5.14,1.12,0,3.43,2,4.28,1.29,1.32-1.11-1.72-5.36-.85-6.86,1.11-1.91,6.79-1.68,8.14-3.43.46-.6,0-2.41.43-3,.65-.78,3-.71,3.85-1.29,3.12-2.2,11.2-8.62,9.43-12-.85-1.62-5.87,1.58-7.29.43-1.6-1.29.24-6.75-1.28-8.14-2.3-2.1-9.57-2.11-12.43-.86-3.28,1.43-5.87,9.39-9,11.14-2.92,1.64-10.06.83-13.29,1.72a22.88,22.88,0,0,0-7.28,4.28c-1.45,1.41-4.28,4.84-4.28,6.86M257.83,184c0,2.27,6.43,3.76,8.57,3,.86-.3,1.59-2.56,1.29-3.43-.41-1.18-3.09-2.93-4.29-2.57-.8.24-1.34,2.82-2.14,2.57-1.23-.39.83-4.88-.43-5.14-1.55-.32-3,5.57-3,5.57m.86,4.05a3.19,3.19,0,0,0,1,2.05c.91.55,3.63.61,4.17-.34.22-.39-.33-1.39-.64-1.71-.74-.74-2.92-1.78-3.85-1.37-.34.15-.64,1.37-.64,1.37m5.57,10.09c0,1.22,3.65,1.88,4.71,1.28,1.36-.77,2.36-4.58,1.71-6s-4.6-3.43-6-2.57c-1.55,1-.43,5.46-.43,7.29m5.14,4.71c0,1,3.09,1,3.86.43,1.8-1.39,2.83-7.33,1.28-9a3.35,3.35,0,0,0-3-.43c-2,1.23-2.14,6.69-2.14,9m.86-12c0,.76,1.39,2.23,2.14,2.15,3.94-.43,7.44-11.77,5.14-15-.62-.87-3.44-.67-4.28,0-2.58,2.05-3,12.85-3,12.85"/></g><g id="Minor-Outline"><path id="Camino-a-Mina-Kori-Chaca" class="cls-7" d="M223.13,196l-21.43-2.58-8.14,3.43-65.12,5.57-1.29,17.57-13.71,15.42v16.71l22.28,16.71,6.43-.86,6-5.14,2.14-6,5.57,1.71"/><path id="Entrada-a-Iroco-y-Mina-Kori-Chaca" class="cls-7" d="M251,183.52l-2.57.43-8.15-6.43-6.42,21.42-9-2.14-1.71-.85M251,183.52l-2.57.43-8.15-6.43-6.42,21.42-9-2.14-1.71-.85"/></g><g id="Minor"><path id="Camino-a-Mina-Kori-Chaca-1" class="cls-4" d="M223.13,196l-21.43-2.58-8.14,3.43-65.12,5.57-1.29,17.57-13.71,15.42v16.71l22.28,16.71,6.43-.86,6-5.14,2.14-6,5.57,1.71"/><path id="Entrada-a-Iroco-y-Mina-Kori-Chaca-1" class="cls-4" d="M251,183.52l-2.57.43-8.15-6.43-6.42,21.42-9-2.14-1.71-.85M251,183.52l-2.57.43-8.15-6.43-6.42,21.42-9-2.14-1.71-.85"/></g><g id="Main"><path id="Avenida-6-de-Octubre-1" class="cls-4" d="M424.07,151l.43-17.14"/><path id="Rotonda-24-de-Junio-y-Villarroel-1" class="cls-4" d="M539.75,268.35l3,.43"/><path id="Campo-Jordan-1" class="cls-4" d="M485.34,163.38l-19.28,9-4.29.86"/><path id="Avenida-Antofagasta-1" class="cls-8" d="M486.19,214.37l-12,39.84-12,43.71-1.28,4.28-7.72,28.28m33-116.11-12,39.84-12,43.71-1.28,4.28-7.72,28.28"/><path id="Calle-6-de-Octubre-1" class="cls-4" d="M424.07,151l-2.57,19.28-1.72,14.57-2.14,14.56"/><path class="cls-8" d="M416.36,292.77l23.56,5.15,21,4.28,25.27,5.57M444.21,169l17.56,4.29M415.5,334.33l12.85-6.42,2.15-.86,1.71-2.57,7.71-26.56,13.71-48.42,11.14-41.13L468.2,193l-2.14-20.57-23.14-50.13M430.5,327.05l21.85,5.57,2.57,1.71m-2.57-1.71.85-2.14M432.64,200.66l-15-1.29m85.26,18.85,4.72,2.15L559,233.22l1.71-.43,2.15,6.43-20.14,29.56M559,233.22l2.57,5.57-21.85,29.56m-124.25,66,12.85-6.42,2.15-.86,1.71-2.57,7.71-26.56,13.71-48.42,10.71-39.42m-33.84,117,21.85,5.57,2.57,1.71m48-116.11,4.72,2.15L559,233.22l1.71-.43,2.15,6.43-20.14,29.56M559,233.22l2.57,5.57-21.85,29.56M416.36,292.77l23.56,5.15,21,4.28,25.27,5.57m-33.84,24.85.85-2.14"/><path id="Calle-Villaz-n-1" class="cls-4" d="M397.93,333.91l17.57.42"/><path id="Calle-Soruco-1" class="cls-8" d="M463.06,332.62l-9.86-2.14-21-6"/></g><g id="Throughway"><path id="Avenida-Tomas-Barron-1" class="cls-4" d="M376.08,27.14l.86,6v3l3.43,11.57,1.28,5.14,16.71,61.27L400.5,133l-1.71-3.42-.43-15.43M373.94,28.42l1.71,3.86,1.29,3.85"/><path id="Avenida-Teniente-Le-n-1" class="cls-4" d="M401.79,134.25l22.71-.43"/><path class="cls-4" d="M505.05,261.07h-4.29"/><path id="Avenida-Sargento-Flores-1" class="cls-4" d="M437.35,201.52l-2.57-7.72-3.43-6.42-11.57-2.57-14.56-2.15-11.14-2.14-12.86-.43m54.42,15.43-.86-1.72-5.57-7.28-9.43-1.71"/><path id="Avenida-Panor-mica-1" class="cls-4" d="M381.22,180.09v8.57l-3,2.57.42,3.43,4.29-1.71,7.28,1.71,8.14,18.42-4.71,9-7.71-5.57-5.14,2.57-10.72-3.43-8.14,3.86"/><path id="Adolfo-Mier-1" class="cls-4" d="M373.94,241.36l-3-.86"/><path id="Calle-Linares-1" class="cls-4" d="M373.08,246.07l.86-4.71"/><path id="Calle-Bolivar-1" class="cls-4" d="M365.37,243.5l3.86,1.29,3.85,1.28m40.28,12,3.85,1.29,5.15,2.14"/><path id="Calle-Baptista-1" class="cls-4" d="M370.94,240.5l-1.71,4.29m6-14.57-1.29,7.71"/><path id="Avenida-del-Minero-1" class="cls-4" d="M375.23,230.22l-1.72-4.28-11.57-6.43"/><path id="Calle-Jun-n-1" class="cls-4" d="M373.94,241.36v-3.43"/><path id="Calle-Ayacucho-1" class="cls-4" d="M425.35,248.64l-4.71-1.71"/><path id="Calle-Arce-1" class="cls-4" d="M414.64,287.63l-4.28-2.14-3.43-.43"/><path id="Calle-Santa-Barbara-1" class="cls-4" d="M405.65,290.63l3.42.86,7.29,1.28"/><path id="Avenida-6-de-Agosto-1" class="cls-4" d="M432.64,336.05l-2.14-9-8.57-23.14m-2.57-1.28-.86-4.71-2.14-5.15-1.29-3.42-.43-1.72,1.72,5.14,1.28,5.15,1.72,4.71,11.14,24.42m-8.14-65.55,3-12.86,1.72-5.57,4.28-15.85,4.29-15.42,1.28-5.57.43-4.71-3.86,16.7-1.28,5.15-2.14,7.71-2.14,8.57-.86,3.42m9-33-.43,1.72-4.29,15.42-4.28,15.85-1.72,5.57-3,12.86m-3,41.13-.86-4.71-2.14-5.15-1.29-3.42-.43-1.72,1.72,5.14,1.28,5.15,1.72,4.71,11.14,24.42,2.14,9m-2.14-9-8.57-23.14m13.71-93.83-2.15,8.14-1.28,5.15-2.14,7.71-2.14,8.57-.86,3.42"/><path id="Calle-Pagador-1" class="cls-4" d="M413.36,258.07l-6.43,27-1.28,5.57-2.15,7.29-3.85,12m0,0,3.85-12,2.15-7.29,1.28-5.57,6.43-27"/><path id="Calle-Velasco-Galvarro-1" class="cls-4" d="M420.64,246.93l-3.43,12.43-6.85,26.13-1.29,6-1.71,6.43-3.43,12.42-6,23.57-2.57,9.85-5.57,20.57m42.85-163.67,2.14-6.86m-45,170.53,5.57-20.57,2.57-9.85,6-23.57,3.43-12.42,1.71-6.43,1.29-6,6.85-26.13,3.43-12.43"/><path id="Avenida-Panamericana-1" class="cls-4" d="M365.37,243.5l-3.85,1.72L356,264.07h12.42l7.71,3.85,4.29,9-1.72,12"/><path id="Avenida-Espa-a-1" class="cls-4" d="M309.67,299.2l-3-1.28L278,289.35l27.42,8.57,4.28,1.28,10.29,3,38.13,10.71,3-.43,8.14-.42,20.13-2.15,1.29-.43m0,0-1.29.43-20.13,2.15-8.14.42-3,.43L320,302.2l-10.29-3-3-1.28L278,289.35l27.42,8.57,4.28,1.28"/><path id="Avenida-Villarroel-1" class="cls-4" d="M502.9,218.22l-16.71-3.85-21.42-6-16.28-4.28-4.71-1.72-6.43-.85-1.28-.43-3.43-.43,1.28-.43,3.43,1.29,6,1.71,5.14.86"/><path id="Avenida-Al-Valle-1" class="cls-4" d="M457.49,110.68l-14.57,11.57-16.28,8.57"/><path id="Avenida-La-Paz-1" class="cls-4" d="M399.65,134.68l3.43,23.13,2.14,24.85"/><path id="Avenida-H-roes-del-Chaco-1" class="cls-4" d="M437.35,201.52l6.86-23.14.42-2.57V171.1l-.42-2.15-17.57-38.13L411.22,98.69m15.42,32.13.86-.43-.86.43m17.57,47.56V169m-17.57-38.13-10.28-24"/><path id="Viaducto-1" class="cls-4" d="M424.5,242.22l-2.57-.43m8.14,1.71-3-.43m31.7,7.72-2.57-.86"/><path class="cls-4" d="M432.64,243.93l-5.57-.86,26.56,6.43,5.14,1.29,15.43,3.42,26.56,6.86M322.53,35.28l-3.86,3L296.82,73.84,280.11,91.4,251.83,130l-6.42,21.43L251,183.52l8.56,41.13,12,22.71,1.72,9.43L278,289.35l1.71,8.57,1.29,6.42,6,26.14,6,6.85,1.72,2.57M281,304.34l-.86-6.42L278,289.35M426.64,130.82l-2.14,3M296,337.33h-3m139.68-1.28,22.28-1.72,8.14-1.71,5.14-.43m-89.55-43.27,9.86,3.85-6,1.72-12.85-1.29-1.29-4.28-11.57-.86v3.43l5.14,2.14.86,3-7.28-.43,1.28,1.72,3,.42-1.71,14.57m43.7-178.66L400.5,133l-.85,1.72,2.14-.43M453.63,249.5l-16.28-4.28m-21-138.39L381.22,25.42m-4.28,10.71L389.36,50.7l9.86,21,4.28,9.42,7.72,17.57m89.54,162.38-26.56-6.86-15.43-3.42-5.14-1.29-26.56-6.43,5.57.86M257,210.08l2.57,14.57,12,22.71,1.72,9.43L278,289.35l1.71,8.57,1.29,6.42,6,26.14,6,6.85,1.72,2.57m1.28-2.57h-3m85.69-48.41,9.86,3.85-6,1.72-12.85-1.29-1.29-4.28-11.57-.86v3.43l5.14,2.14.86,3-7.28-.43,1.28,1.72,3,.42-1.71,14.57m95.54-63.41-16.28-4.28m-4.71,90.83,22.28-1.72,8.14-1.71,5.14-.43M281,304.34l-.86-6.42L278,289.35"/><path id="Calle-Renjel-1" class="cls-4" d="M421.93,303.91l-2.57-1.28"/><path id="Calle-Lizarraga-1" class="cls-4" d="M390.65,309.48l9,.43,4.28.43"/><path id="Avenida-Dehene-1" class="cls-4" d="M298.11,337.76l11.56-38.56L296,337.33"/></g><g id="Highway"><path id="RN31-Oruro-La-Joya-1" class="cls-9" d="M304.58,1.24l6.64,3.86m0,12-.85,12,.85.43M304.69,1.24l7.39,4.29-1.71,23.56,8.14,6,2.57.43"/><path id="Avenida-Circunvalaci-n-1" class="cls-9" d="M370.78,24.38l-3,2.14-33.42,3.86-13.28,5.14m46.7-9,2.57.43M296.66,340.14l9,3,4.29,2.15,19.71,9.42,25.7,7.29,33,2.57,32.14-3.86,15.42-5.14,5.57-3,25.28-20.14,18-24.42,5.15-9.85L495,282.73l3.85-17.14.43-4.28M495,282.73l-5.57,15.43L484.74,308m-174.8,37.28,8.57,5.57,21,7.71,36,6.42,22.28-.42,21.85-3.43,16.28-5.57M305.65,343.14l-9-5.14m78.4-312.34h4.71l10.72-.85,16.7,4.71,9.86,8.14L446.61,92.5,456,110.92l27.85,52.7,10.71,21.43.86,2.14,6,31.27.86,5.15-2.14,30.84-.86,6.86M390.49,24.81l12.42,3,8.14,4.71,7.28,7.28,27.85,52.7L456,110.92M374.63,27.38l5.14-1.72M296.66,340.14l9,3,4.29,2.15,19.71,9.42,25.7,7.29,33,2.57,32.14-3.86,15.42-5.14,5.57-3,25.28-20.14,18-24.42,5.15-9.85L495,282.73l3.85-17.14.43-4.28M305.65,343.14l-9-5.14m13.28,7.29,8.57,5.57,21,7.71,36,6.42,22.28-.42,21.85-3.43,16.28-5.57M495,282.73l-5.57,15.43L484.74,308"/><path id="Rotonda-Casco-del-Minero-1" class="cls-9" d="M374.63,27.38l.43-1.72L373.78,24l-3,.43L370.35,27l2.14,1.71,2.14-1.28"/><path id="Avenida-del-Ej-rcito-1" class="cls-9" d="M499.31,261.31,507,262.6l-3.42-1.29"/><path id="Avenida-24-de-Junio-1" class="cls-9" d="M599.55,280.39l-24-4.51-2.15-.43-3-.43h-2.14l-25.71-5.14L541.3,269l2.14.43,24.85,4.71,2.14.86m3,.43,2.15.86,24,4.51"/><path class="cls-9" d="M538.3,268.59h-1.71l-29.57-6,29.57,5.56,1.71.43,3,.43"/><path id="RN12-Oruro-Ocotavi-1" class="cls-9" d="M578.13,1.24,461.61,105.35l-4.29,3.86L456,110.92"/><path id="RN1-Ruta-Nacional-1-1" class="cls-9" d="M365.31,1.24l3.75,14.14,1.72,9m3-.43-3.86-8.57L366.17,1.24"/><path id="RN12-Oruro-Toledo-1" class="cls-9" d="M293.23,340.14l-3,12.86-2.57,37.27m-.57,11,.14-2.4,3.43-45L295.37,341m-2.14-.86-3,12.86-2.57,37.27m-.57,11,.14-2.4,3.43-45L295.37,341"/><path id="Rotonda-UTO-1" class="cls-9" d="M296.66,338l-2.15-.43-1.28,2.57,2.14.86,1.29-.86V338"/><path class="cls-9" d="M287.66,390.27l-.43,8.57"/></g><g id="Roadnumber"><rect class="cls-10" x="338.8" y="23.29" width="17.16" height="11.11"/><path d="M356.13,34.6h-17.5V23.1h17.5ZM339,34.21h16.81V23.49H339Z"/><g class="cls-11"><text class="cls-12" transform="translate(341.54 30.1)">F 31</text></g></g><g id="Airport-International"><path class="cls-13" d="M581,175.75l.13-.57-1.64-.7.44-.44,1.83-.12.57-.73,2.21-2.21-5.18-2.52.63-.63,6.82.88,1.7-1.74.13-.12a1.18,1.18,0,0,1,.72-.32,1,1,0,0,1,.7.19.81.81,0,0,1,.16.7,1.57,1.57,0,0,1-.32.72l-.13.13L588,170l.85,6.85-.63.63-2.53-5.21-2.2,2.21-.7.57-.12,1.83-.45.44-.69-1.64-.57.1Z"/><text class="cls-14" transform="translate(565.55 182.01)">Juan Mend<tspan class="cls-15" x="20.01" y="0">o</tspan><tspan x="22.24" y="0">za </tspan><tspan x="7.39" y="4.8">Airpo</tspan><tspan class="cls-16" x="17.12" y="4.8">r</tspan><tspan x="18.67" y="4.8">t</tspan></text></g><g id="State-capital"><g class="cls-11"><text class="cls-17" transform="translate(301.32 252.07)">Oru<tspan class="cls-18" x="37.54" y="0">r</tspan><tspan x="45.61" y="0">o</tspan></text></g><g class="cls-11"><text class="cls-17" transform="translate(301.32 252.07)">Oru<tspan class="cls-18" x="37.54" y="0">r</tspan><tspan x="45.61" y="0">o</tspan></text></g></g><g id="Adornments"><g id="Copyright" class="cls-19"><text class="cls-20" transform="translate(526.63 391.42)">© Mapc<tspan class="cls-21" x="18.09" y="0">r</tspan><tspan x="19.78" y="0">ea</tspan><tspan class="cls-22" x="25.27" y="0">t</tspan><tspan x="26.89" y="0">o</tspan><tspan class="cls-23" x="29.81" y="0">r</tspan><tspan class="cls-24" x="31.24" y="0">.io</tspan></text><text class="cls-25" transform="translate(563.37 391.42)"><tspan xml:space="preserve"> | </tspan></text><text class="cls-20" transform="translate(567.15 391.42)">OSM.o<tspan class="cls-26" x="15.29" y="0">r</tspan><tspan class="cls-27" x="16.98" y="0">g</tspan></text></g><g id="Modern-Line-Scalebar"><line class="cls-28" x1="5" y1="375.5" x2="51.5" y2="375.5"/><line class="cls-28" x1="5.5" y1="371" x2="5.5" y2="381"/><line class="cls-28" x1="51.5" y1="371" x2="51.5" y2="376"/><line class="cls-28" x1="51.5" y1="376" x2="51.5" y2="381"/><text class="cls-29" transform="translate(5 393)">0</text><text class="cls-29" transform="translate(50 393)">1 km</text></g><g id="Inset-map"><rect id="insetmap-rectangle" class="cls-30" x="5" y="5" width="113.08" height="113.08"/><g class="cls-31"><path class="cls-32" d="M45.22,103l-.18.1.12.09-.11.25-.16,0,.14-.26-.18.15.15-.19-.27.12.29-.37Zm5.81.32v4.36l-.41-.22.29.25-.46.1-.65-.26-.07-.28,0,.27-.1-.21-.16.22,0-.29v.31l-.41,0,.1-.33-.13.31-.47,0-.07-.16.43-.28-.66.31.12-.33-.39.13.14-.13-.09-.17h-.22l.09.17-.18.16,0-.22-.54.11-.07-.25.44.15-.26-.31.37.16.14,0-.21-.19.3,0,.48.28.16-.39.24.06-.21.55.23-.46.51.33-.93-.88.9.62.12-.11-.18-.13.24-.09.26.65-.11-.62.38.33.07-.21.3.22-.33.46.17.06.15-.38.11.18,0-.32h.19l-1.22-.68-.16-.54.91-.6,0-.24-1.27,0,0-.69.39-.17-.4-.28.58.12.57-.73.33.46.42-.3ZM48.26,108l.74-.35-.43.27.57.18-.31.2-.06-.3Zm-2.79-3.15.46.14-.19-.21.19-.1.19.23.21.31,0-.26.32.23-.27.12.54.18-.35.07.1.41-.15-.17-.06.26-.44.07-.16-.13.34,0-.23-.11.24,0-.14-.11.27-.2-.3.17.09-.39-.24.28.26-.4-.37,0,.24-.13h-.37Zm.14-.57.68.25-.15-.21.22-.06-.37-.09.15-.14-.18-.34.37-.26.1.09-.14.26.35,0,.29-.45h.79l.1.3-.74.64-.65-.13.45.23-.48,0,.24.12-.3.16.33.37Zm2,1.78-.17.16-.22-.26.24.43-.27.17.11-.2-.48-.62.27.14.16-.29.08.27.22-.12-.13.17Zm-1.09.5h.3l-.2.19Zm0-.2.22-.39.16.19Zm.95-.17.16-.14-.05-.26h.16l.07.29,0-.25.2.43.16-.24.12.26-.21.4-.25-.18.17-.19h-.28l.07-.18-.16.34ZM44,103.42l1.89,1.19-.57,0,.12-.09-.49-.44-.49.11Zm1,1.36.42.22-.23-.18.3-.12-.13.2.2.15Zm4.37,3.38,1.75-.46.24.22-.32.23.28.08.2.22-.67,0,.71.24.18.4-.11.26-.32-.53-.65,0,.23-.19-.3,0,.21-.43-.82.13.45.43-.29-.13,0,.25-.13-.22.15-.08-.47-.11.35-.27-.42.19Zm1.89-.41,1.28,0,.27.4-.24.41-.29-.32-.38.23Zm1,1.31-.21,0,.08-.25Zm.36.32-.39,0,.25-.34Zm-3.42-3-.72-.22-.08-.46.34,0-.11-.34.27-.26.17.89-.39-.12Zm1.24,1.45h-1l.32-.2Zm35.86-1.89,1.56.19.21.17-.21.12.48.08.53.92-.35.25-.3-.73-1.15-.45-.07-.21.2-.06-.59,0,.17-.21Zm24.53-89.45-.08-.33.31-.3h1.23l.11-.2.37-.08.85.45.49-.13.11.21-.64.18-.85-.44-.23.28-.58,0v.21ZM115,4.55h3.51V13.7l-.79-.09-.21.4-.64-.64-.29.13-.14.81-.47.11-1.14-1-.16-.52-.56-.07-.55-.64-2.23.14-.28.56.56-2.31-.19-1.16L111,8.85l.28-.12-.2.06.32-.95-.33-.64-.06.21-.16-.15-.27-.59-.16.48.11-.69h4.56Zm-.72,12.35.74,0v.18l.2-.07.61.29,1.13-.13-.15.27.28.24.26-.29.41.39.39-.39.35.09v4.36l-.29-.07-.48.24.28-.46-.13-.44-.18,0,.08-.26L117.2,20l-1.42.14-.41.68-.6.3v-.34l-.12.07-.21-.34-.14.08.11-.34-1-.49-.39-.92-.21,0,.35-.63,1.11-.23v-.35l-.29-.21.35-.17ZM115,4.55l.1,1.9h-4.56l-.11.69.11-1.31.22-.5.31-.12.22-.67Zm-4.19,12.74,0-.85,1.09-.13V16.1l.58,0,.23-.28.85.44.64-.18-.11-.21-.49.13-.85-.45-.37.08-.11.2H111l-.48-1-.34-.36-.32,0,.71-.53.47-1.05.28-.56,2.23-.14.55.64.56.07.16.52,1.14,1,.36,1-.13.35.25.38.26-.07.28.46,0,.67-1.13.13-.61-.29-.2.07v-.18l-.74,0h-1.69l-.58.31ZM49.48,36.5l.64-3.57-.24-.72-.48-.35,0-.88.66-.2.4.11-.14-.48-.69,0v-.75h1.93l-.13-.11.1-.27.35.31.56-.51.28.47.08.77.28-.07.6.57.89-.28v.38l.47-.55.46-.11.41-.34.07.19.28-.31.1-.41.69-.2.06-.29-.81-.11.06-.3L56.08,28l.05-.5-.71-.85.28.2h.49l.14.28.78-.1.53.46.16-.16V27l.35-.18.69,0,.61-.43.37,0,.47-.49-.17-.31.68-.05.18.32-.21.54.57.16-.06.21.24.28-.41.44-.14,1,.11.37.2.1,0,.49.55.52.53.27.37-.11.18-.37.38.09,0-.17.49,0,.24-.33.29-.05.36.2.35-.11.66.07L65.41,29l.19-.3.67.14.51-.26.08.22.32.12.35.24.6-.29,1,.22.41-.38.23-.72.84-1.25.17-.25.45.63,0,.87.41,1.14.28-.06.24.45.37.14,0,.76-.23.3.11.33.19.21.34-.09-.11.26.39.36,1.06.15-.15.68-.3.24-.05.6.28-.34.07.26,0-.47.24-.06.25-.48.15.24,0-.13.29-.25,0,.25.12,0v-.16l.2.16-.09-.21.13.13,0-.13.16.27.06-.17,0,.19.16-.16,0,.25.13-.2,0,.18.2-.1-.12.26.38-.2-.06.25.35-.19-.11.29.11-.2L77,33l.13-.17,0,.17.07-.09v.14l.21-.14.07.2,0-.19,0,.3.19-.09-.15.24.25,0v.17l.58-.24-.1.21.24.13-.09.09.21-.07.13.36-.41.3h.21l-.1.15.33-.33.13.21-.41.35.19-.1-.08.58.13-.39-.07.38.17-.08.12-.56.33-.06-.14.29-.25.1.12.12.52-.56,0,.19.21-.08,0,.16.24-.33,1.4.56.29,0-.09-.15.78.24,1-.16.68.1,1.67,1,1.5,1.44,2,.31.68,2v1.11l-.62,1.55-1.2,1.46-.89.71-.68,1.31-.65.83-.24.11,0-.33-.25-.17-.08.33.25.06-.36.19.09.08-.31.3.12.34,0,.17L85,47.6l.15.15-.12,0,.14.19-.1.19.17-.23-.15.94.23,1.33-.41,1.58.09.64-.41.38-.26.55-.11,1.45-.39.37-.31.85-.39.27-.36.8.09.62-1.12.66.12.27-.17.31-1.21,0,0-.39-.23.16.12.24-.43.11-.52,0,.46-.1-.27-.15-.45.2L79,58.79l-.38.2,0,.18.24.08-.09.08-.37,0-.58.37,0,.25-.53-.1-1,.56-1.5,1.43.08-.12-.33.18-.14-.17,0,.32-.32-.18L74,62l.41.11-.25.36,0,.4-.25.18.36-.12-.23.59.1.57.16,0-.18.11.05.85-.21.86-1.09,1L71.58,69.4l-1.66,1.52-.49,1.23L68.6,73l-.19-.2.11-.62.27-.16.06-.33.4.16.25-.46L69.37,71l.13-.26-.22.12,0,.29-.48.32-.47-.27-.16-.49-.91-.79-.84-.34L66.05,69l-.5.33V69L64.63,68l-.3,0-.17.28-.49-.14,1.42-1.48.62-.94.21.08-.1-.23.86-.51.26-.42.6-.11.13-.25.43-.14L68.29,63l-.24-.72-.3-.09V62l-.37.26-.2-.14.39-1.56-.07-.45-.4-.25-.45.23-.41,0L66,58.45,65.73,58h-.41l-.21-.25-.52.28-1.33-.26.21-1.43-.4-1,.35-.21-.31-.28.5-.92-.08-.13.36-.81-.34-.81-.74-.46-.1-.43.17-.67H60.76l-.08-1-.37-.43.36,0-.25-1.55-.64-.36-1,.06-.35-.5-.69-.11-.45-.49-.17.09-.56-.3-.59.08-.48-.49-.37-.1-.38-.88.13-.31-.2-.43.16-.47-.11-.61-.2.17-.26-.13-1,.19L52.07,44,51.69,44l-.58.53-1.2-.19-1.19.07V43l.14-.46-.83.64-1.11,0-.2-.58-1-.1L46,42l-.7-.74-.27-.52.12-.14-.36-.29.05-.21.28-.05L45,39.85l.11-.32.67-.38-.13-.55.33-.44.16-.64,1-.68,1.11-.15.21-.26.51,0,.32.26ZM40.34,23.28l.17-.55.19.22L41,22.5l.23-.07-.35-.61.09-.23.49.68.15,0-.14.24h.2v-.55l-.2-.19.7-.43.42-.59h.39l.05-.22-.14-.09.21-.62-.21.11.23-.19v-.31l.78-.64.56.16.28-.43,1,.07,1.2-.72.06-.38.26-.06,0,.13,0-.14.33-.22.52.2.12.29-.24.23-.74.24-.33.6-.28.06-.46.75-.06.72-.47.77.4-.14.07.24.21,0,.47,1.1-.14.79.32.12.18.4,1.18.07.39-.15.65.14,1,1.06.24-.16.46.1,1-.23.41.14-.2.84-.26.19v.9l.26.86.37.47-.63.68.29,0,.49.54.39,1.3-.28.07-.08-.77-.28-.47-.56.51-.35-.31-.1.27.13.11H49.61v.75l.69,0,.14.48-.4-.11-.66.2,0,.88.48.35.24.72-.64,3.57L49.07,36l-.46,0,.72-1.33-.62-.2-.29-.3-.6.22-.39-.31-.48.39-.55-.13-.36.11-.27-.27,0-.49-.44-.1.09-.16-.19-.36-.75-.33-.13-.5-.46-.39-.55-.1-.63-.19-.54-.45-.36.26-1.08-.22,0-.28-.21-.19-.6-.14-.14-.29-.14,0L39.27,30,39,29.74l.28-.21.28.09-.18-.41.12-.36.22-.1.06.2.11-.34.14.21,0-.19.14.15-.06-.16.32-.05.27-.67.64-.78L41,27.2l.12-.31-.2.21-.2-.31.26-.54-.1-.9-.17-.05.32-.29-.26-.54.18-.41-.43-.32,0-.23ZM37.65,35.59l-.07-.11.28-.15-.27-.23,0-.31-.88-.63.32-.17-.13-.51.13-.28-.2-.35.41-.18.08-.62.48-.49,0-.85,1.07-.34.4-.39.44.33.14,0,.14.29.6.14.21.19,0,.28,1.08.22.36-.26.54.45.63.19H43l.44.5.05.49-.23,0-.2.73-1.24,1.18-1.4.47-.39.58-.18-.13-.36,1.39-.23.1-.19.4-.29-.07-.42-.6-.21.06-.36-.24-.37.19.17-.29h-.17l0-.17.41-.19Zm0,0,.11.53-.41.19,0,.17h.17l-.17.29.37-.19.36.24.21-.06.42.6.29.07.19-.4.23-.1.36-1.39.18.13.39-.58,1.4-.47L43,33.43l.2-.73.23,0-.05-.49-.44-.5h.4l.55.1.46.39.13.5.75.33.19.36-.09.16.44.1,0,.49.27.27.36-.11.55.13.48-.39.39.31.6-.22.29.3.62.2L48.61,36l.46,0,.41.47-.1.17-.32-.26-.51,0-.21.26-1.11.15-1,.68-.16.64-.33.44.13.55-.67.38-.11.32.12.23-.28.05-.05.21.36.29-.12.14.27.52L46,42l-.3.5,1,.1.2.58,1.11,0,.83-.64-.14.46v1.39l1.19-.07L51,46.15l-.47,1.39.28.64-.18,0-.43.68.27.54-.24.33-.41-.36-.24.07.17.51-.23-.19-.09.34.28.1,0-.17.41.25-.05.26.46,0,.16,0-.14.08.07.49-.73.74.2.26-.37.17-.07.64-.6.22-1.16-.78-.14-.53L43.5,49.61l-1.3-1.45v-.34l-.14,0,.17,0,.05-.54L41.59,46l-.43-.34,0-.5-.51-.42v-.4l-.6-1-.93-2.21-.54-.58-.61-1.13-1.34-.87.35-.39-.4-.51.15-.2L36.36,37l.09-.48.88-.9Zm3.29-14-.09.23.35.61L41,22.5,40.7,23l-.19-.22-.17.55-.66-1,.23-.09.12-.35.11.08,0-.13-.37.13-.15-.39-.72-.39-.62.17,0,.32-.84.44.56.82-.52.32-.52,0-.24-.52,0-.29-.19.34-.33-.11-.28-.57-.47,0-.06-.2-.72.05-.07.3L34.38,22l.25-.18-.09-.33.23-.18-.25-.18v-.46l.08-.18.35.07.25.15V21h.21l-.09.23.51.08L35.73,21l.39.42.29,0,1.34-.5.58-.48.76.06-.1.15h.56l.61.23ZM32.19,5.79,33,5.62l-.18-.24L33,4.92l.8-.37H38l.75.6h.67l.88.59.15-.06.07.19.69.18v.14l-.24-.09.16.22.15-.21.57.4,1,.21.17.4-.26-.06v.16l.94,0,1,.59-1.19.39L42.25,8.1l-1.74.18.72-.64-.14-.35L40,7.16l-.39-.34-.31-.74-.53.11L38.1,6l-.72-.46-.73-.06-.12-.25,0,.29-.68-.16-.41-.27L36,5l-.26-.25-1,0L34,5.37l-.66.07-.1.3-.54.2V5.71ZM63.67,68.16l-.29.43.11.45-.33.82.06.41-.2.15L63.16,72l-.36.24,0,1,.08.4-.23.12,0,.22,1.5,1.16.11.24-.3.74.31.45.43,0,.08.82-.94,1.37-.07.39-.91.57L60,80.49l-1.1,0-.66-.29.05.69.37.17L58.29,81l.31.23-.08.6-.24,0-.18.66.35.44-.24.47-.82.38-.8,0-1.28-.52.18,0-.13-.14-.3.18.1,1.91.65.24-.19.28.24,0,.44-.13-.39-.19.71-.24.19.39,0,.68-.59.18L56,86l-.34-.13-.48.24,0,.2.83.32-.89.51-.31.56.14,1.14-.59.72.24.19-.2.22-.57-.13-.48.25.1.14-.52.09-.76,1.28.21.82.75.76,1.22.35-.19,1,.16.33-2.06,1.84-.32.67.26-.17-.26,1.16L50.72,99l-.28,1-.38.34.34-.2.21,1.16.72,1.32-.1.15L49.44,102,47.11,102l.07-.19-.57-.54.21-.61-.17-.26.16-.14,0-.68-.51-.08-.54.37.07-.3-.26-.22-.19-.69.09-.34-.13,0,.13-.27H46V96.88h-.16l.66-.62-.06-.54.42-.3-.35-1,.59-.92.18.05-.11-.69.36-.23-.1-.68-.21-.22.35-.28-.18-.22v-.47l.52-.44-.28-.51-.55-.13,0-.23.89.09.23-.37L48,88.9l-.67,0,0-.48.23-.26-.12-.25.2-.23-.4-.32.23-.39L47,86.48l-.05-.34.2-.32-.21-.51.53-.07-.27-2.11.36-.57-.2-.22.27-.45-.15-.43.3-.07,0-1,.58-.26.11-.24-.41-1.09L48,78l.14-.22L48,77.56l.15-.06-.11-.14.2-.21,0-.31.38-.07.15-.42.18,0,.13-.49-.14-.7-.18-.07L49,75l.4-1.24.27-.08L49.54,73l.15-.59-.34-.19.09-.42L49,70.66l.2-.12-.41-.49,0-.55.29-.19.14-.94.23,0,.16-.26L49.47,68l.1-.48L49.4,67l.27-.27.16-1,.6-.65.39-1,.24.1.33-.18-.34-.7.25-.41-.25-1,.29-.39-.25-.44.34-.46,1.08-.47.38-1.3-.21-.23.51-.73.51-.18.09-.38.53.41,1.28.11.36.89.45-1.14h1.31l.18.3.46.35.31.64,1,.71.15.28,1.09.24,1,.77,1.59.71.21.48-.29.26,0,.32-.36.22,0,.6-.53.63,0,.25.83-.08,1.21.44.28-.22.26.22.33-.39.41.19.2-.44.9-.62.21-1.33.2.14.37-.26v.15l.3.09.24.72-.19,1.16-.43.14-.13.25-.6.11-.26.42-.86.51.1.23-.21-.08-.62.94ZM43.54,101.7l.2-.09-.14.28Zm.05.37.16-.38v.22l.16-.14-.14-.41.2.25-.16.61Zm0-1.06.26-.43.34.14ZM43.12,99l.07-.31.24.21.12-.2-.31-.29.29,0,0,.24.16-.17-.09.24.3-.1-.44.36v.24l-.22-.07.17-.26Zm.37-.81-.23,0v-.29l-.31.26.18-.25L43,97.72l.29-.11Zm-.06-1.33.14-.25.3.18-.06.36Zm-.29.38.14-.16-.1.14.37.26-.11-.11.27,0h-.28L43.3,97l.34.16-.18-.14.24,0-.12-.21.24.36.16-.5-.21-.18.23.06-.32-.24.22-.15-.25,0L43.9,96l.25.07,0,.26.18-.29-.13.44h.19l-.13.1.16.53-.19.35.12.18-.15.11h.22l-.19.11.16.3-.26,0,.14.2-.13.13-.3-.13.27-.14-.3,0L44.1,98l-.23.1.12-.23-.14.17-.09-.25.27-.07-.23-.17.33-.42-.39.42,0-.25,0,.35-.13-.11.09.29.1-.12-.16.49-.22-.44.13-.15-.19,0,.14-.29-.16.14Zm.53-1.06.17-.08-.14-.15.23.08ZM43.41,95l.56.21-.28.45Zm.28.71.23-.18.07.29,0-.74.17.45-.13.07.25.37-.53,0ZM43.53,95l.4,0-.31,0,.24.23Zm.16,5.9-.19.09,0,.39-.16-.1.23-.6,0,.26Zm0-1.05-.15-.16.14-.13Zm-.62-.26.21-.1-.1-.24.4.07-.3.08,0,.46Zm1.34.89-.27-.07.14-.19Zm.1.16-.1-.59.13.2.09.34Zm-.81-.48.49-.1-.12-.39.28.2.06.39-.4.18.1-.29-.23.23,0-.2Zm.83,2.6.08-.26.26.25Zm.18-.37.38.19,0,.26Zm-.49-.86.52.33-.23.09Zm.48-.76.17-.13,0,.19Zm-.17.77.22-.35v.36l.17.09Zm-.75.81.18-.6.2,0Zm0,.13h.38l-.16.23Zm.31-2.61-.31.1-.05-.21.14-.19L44,100Zm.56,0-.49-.31.26-.23-.4-.07.39-.06.18.4-.26-.06Zm-.74-.63L44,99l.18.09Zm-.25-3.46-.2.28,0-.66-.33.12.23-.2-.15.11.11-.26-.13.11L43.05,95l.25-.15.18.75.14,0-.16.06Zm-.72,1.16.41-.46v.32Zm0-.46.14-.26.14,0-.15.14.33-.06v.37l0-.27-.23.23-.1-.11.12-.11Zm.42-.27.31.27-.21.07Zm.26,0-.21-.1.25-.26ZM43,95.84l.07-.25.35,0v.26l-.25.16L43,96l.29-.2Zm.29-1.44.32-.11-.07.2h.17Zm.92.65.28.27-.19.12.07-.26-.14.15Zm.17,2.29.2.23-.18.15Zm-.07-1.83.26.18-.2.07Zm0,0,.27.11-.18-.14.1-.11.15.27Zm0-.8h.36l-.18-.15.14,0,.2.08-.14.11.1.07,0-.18.32.07Zm-.35.19-.21-.1.2-.24Zm1.2-6.65.19.12-.09.11Zm-1.48,1.37-.16.14,0-.19Zm1,1.28-.35.18.1-.47Zm.07-.09.06-.22.33,0Zm.65.11-.14,0,.05.27-.19-.27.14-.3Zm1-1.81-.33.09.18.24-.46.34-.21-.2.25-.05-.32-.23.38-.1-.09-.28L46,89l-.11-.2.22.09-.1.24.14-.24ZM44.9,91.63h.32l-.1.2Zm-.19-.47.25-.1-.14.32Zm0-.34.28,0-.13.21Zm-.33-1,.27-.23.3.17Zm.17.13.49-.16.17.31-.1.21Zm-.21-.69.67.07-.47.17-.13-.14.31,0Zm.39-.51.22,0,0,.16Zm0-.22.3,0h-.23l0,.17Zm-.33,1.7.24,0-.05.22,0-.24,0,.19ZM45,89.19l.26-.1-.07.31.18,0-.21.06ZM44.34,87l.3-.64.11-1.64.18-.06-.11.13.27.19.11-.27.22.06-.1.18.26.49-.38.18.11.24h-.25l.06-.17L45,85.9l.39.44-.33,0,.32.4h-.29l.08.36-.25,0,0,.22Zm.29,1,.43,0-.17.2Zm-.78-.48.32.1-.25.09Zm1.81.66.17-.12,0,.22Zm17.92,13.27-.65.12.2.1-.38.24-.59-.27.44.41-.07.21-.74-.22.31.49-.51-.24.15.41-.47-.41.19-.1-.09-.23.16-.22.48-.27-.1-.19.29-.12-.26-.12.34-.16-.13-.26.68.19,0,.23-.27,0,.37.38.07-.22-.17-.13.09-.11.42-.05.16.31h-.46Zm-1.7-.52-.76,1-.52.07,0,.28-.3-.06.11.11-.13.15-.54-.46h.65l.13-.17-.26,0,.47-.23-.39,0-.11-.27.73.13-.73-.72.58.29.19-.05-.08-.16Zm-1.91.68-.16.41-.2-.29Zm.62-.92.31.12-.25.15.16-.09Zm2.18-27.46,0-1,.36-.24L63,70.42l.2-.15-.06-.41.33-.82-.11-.45.29-.43.49.14.17-.28.3,0,.91.92v.39l.5-.33.39.57.84.34.91.79.16.49.47.27-.18.39-.33.16.1.76.19.2-.47.92-1.36.79-.84-.3-.56.26L64.26,74l-.83,0Zm.31-17.88v-.42L62,54.35l-1-.06-2,.41-.62,1.14,0,.61-.45,1.48-.19-.31h-1.3L56,58.76l-.35-.89-1.28-.11-.53-.41-.09.38-.51.19-.51.72-.81,0,0-.37-.38-1.54-.42-.48.11-.33-.35-.22,0-.47.28-.19-.2-.22.33-.4-.63-.58-.22-1,.1-.12-.27-.12L50,52.11l-.2-.26.73-.74.13.17L50.55,51l.21,0-.12-.18.44-.22-.32,0-.06-.18.22-.16-.31-.06-.4-.42.24-.33-.27-.54.43-.68.17,0-.27-.64L51,46.14l-1.06-1.83,1.2.2L51.7,44l.38.06,1.25-1,1-.19.26.13.2-.17.11.61-.16.47.2.43-.13.31.38.88.37.1.48.49.59-.08.56.3.17-.09.45.49.69.11.35.5,1,0,.64.35.25,1.55-.37,0,.38.43.08,1h2.12l-.17.67.1.43.74.46.34.81-.36.81.08.14-.5.91.31.28Zm-10.4,3.3.21.23-.38,1.3-1.08.47-.34.46.25.44-.29.39.25,1-.25.41.34.7-.33.18-.24-.1-.39,1-.6.65-.16,1L49.4,67l.17.52-.1.48.17.14-.16.26-.23,0-.14.94-.29.19,0,.55.41.49-.2.12.46,1.16-.09.42.34.19-.15.59.12.64-.27.08L49,75l-.24.14.18.07.14.7-.13.49-.18,0-.15.42-.38.07,0,.31-.2.21.11.14-.15.06.14.21L48,78l0,.84.41,1.09-.11.24-.58.26,0,1-.3.07.15.43-.27.45.2.22-.36.57.27,2.11-.53.07.21.51-.2.32.05.34.47.47-.23.39.4.32-.2.23.12.25-.23.26,0,.48.67,0,.16.26-.23.37L47,89.44l0,.23.55.13.28.51-.52.44v.47l.18.22-.35.28.21.22.1.68-.36.23.11.69-.18-.05-.59.92.35,1-.42.3.06.54-.66.62H46V98h-.55l-.13.27.13,0-.09.34.19.69.26.22-.07.3.54-.37.51.08,0,.68-.16.14.17.26-.21.61.57.54-.07.19,2.33.05,1.79.75-.9-.38-.52.65-1.25.31-.25,2.08-.32.2-1-.4-.43-.55.42-.29-.09.37.38-.41,0,.45.11-.5.72-.56-.51-.66-.88,0-.13.26-.08-.25-.42,0-.14.36.16-.25.21.1-.45.33.15.12-.07.3-.53-.09.36-.19-.49-.23.4,0v-.26l.31-.15-.16-.11.26,0-.36-.2,0,.41-.19-.21,0,.32-.4,0,.31-.46-.22-.12.1-.44-.21-.31.43.32.42-.29-.16.16.23.12-.07.17.3-.42-.2.26,0-.32.21-.18.29.5L46,103h.5l-.13-.14.23-.38-.23-.45.23-.1v-.26l-.26-.4-.66-.19.84.51-.24.19-.64-.49.34.38-.24.22.34-.09-.36.47-.2-.87.12,1-.39-.54.3.32-.24-.54.16-.13-.19-.08-.1.28-.13-.16.15-.16h-.28l.16-.14-.15,0,0-.32.36.47-.21-.74.13.11v-.31l-.48.18,0-.47-.18.2-.05-.26.52.09L45,99.89l.18,0,0-.27.44.05-.41-.25.21-.31-.57.84-.23-.47.15-.07-.22-.14.37.22.13-.08-.35-.22.22-.12-.32.15L44.48,99l.17,0-.17-.17-.07.27L44,98.73l.32-.34.2.22-.11.11.57.2-.58-.57.55.13-.15-.11.2-.29-.21.26-.29-.13L44.44,98l.35-.12-.3.09,0-.23.41-.14-.13-.11.08-.43.25.25L44.79,97l-.16,0v.6l-.26-.26,0-.71.16-.08-.13-.26.44-.11-.4-.25.24-.21.28.25-.09-.3.17-.06-.46-.12L44.27,95l.13-.16h.08l.09.44.17-.1-.23-.34.62,0,0,.21.32.18.12-.19-.29-.47.47.16-.54-.34.06-.27-.3.39L44,94.38l.21-.35.18.15-.22.12.44.14-.11-.19.26,0-.25,0,.36,0H44.7l.19-.22-.41.2.26-.25-.32.16-.09-.12.22-.14-.29.11.27-.43.23.32-.06-.3.22-.27-.33.13.29-.26-.47-.29.18-.06-.43,0,.15.09-.3.07.35.14-.65-.25-.11-.21.18-.33-.74.48,0,.16.29-.14-.12.14h.17l0,.2-.21,0-.17-.4.63-.67.06-.16.21.12,0-.24.31,0-.19-.07.26-.12-.18,0,0-.21-.25.36-.2-.05.28-.15-.31-.19.35.11-.2-.14.26-.08.25,0,.09.34.12-.11-.13-.3.4,0-.2.14.3.12-.34,0,.27.17-.31,0h.32l.06-.23,0,.27-.53.08.54,0L45,91.7l.15.23-.28.55.19,0,.54-.89-.39.48.16-.84.47-.28-.17-.1-.33.31.09-.53.33-.28.24.28.23-.08-.84-.35h.24l-.06-.41.55-.18.39-.51,0-.21-.11.19-.21-.36-.38-.07.11-.19-.22,0,.22-.13.14-.51.27.12-.09-.29,0,.19-.25,0,.22-.21-.26-.29.27-.63.16.08-.11-.9.38.06-.41-.4.3-.16.22.46,0-.49L46.62,85l-.52-.09.65-.41,0-.39-.31.49L46,84.25l-.26.46-.68,0,.44-.38-.48.12-.17-.81.25-.76V82l.28-.23.19.14-.12-.34.23-.52L45.41,80l0-.83-.27-1.1.13-.27.25.13.24-.18-.07-.5.11-.22.16.13.22-1,.26-.26-.07-.34.49-.65.22-1.36.46-.75-.15-.67.21-.12.15-.51-.34-2.76.08-.45.3-.12.13-.35-.27-1.32.41-.73.14-.92.17,0-.09-.58.18-.15.22-.91-.14-.68.35-.58-.16-1L49,59.65l-.09-.18-.17.06,0-.33,0-.21.33-.21.27-1.84L49,53.15l.6-.22.07-.64.37-.17.21.56.27.12-.1.12.22.95.63.58-.33.4.2.22-.28.19,0,.47.35.22-.11.33.42.48.39,1.54-.05.37Zm5.22-.72.45-1.47,0-.61L59,54.71l2-.41,1,.06,1.09.58v.42l.4,1-.21,1.43,1.33.26.52-.28.21.25h.41l.28.47.23,1.64.41,0,.45-.23.4.25.07.45-.39,1.56L67,63.49l-.9.62-.2.44-.41-.19-.33.39-.26-.22-.28.22-1.21-.44-.83.08,0-.25.53-.63,0-.6.36-.22,0-.32.29-.26-.21-.48L62,60.92l-1-.77-1.09-.24-.15-.28-1-.71-.31-.64Zm16.25,6.64.22,0-.13.43-.11.09Zm.38-2.73.22-.14-.21.31ZM77.72,60l.13-.23.13.05,0,.24Zm7.57-12.74-.11.12-.07-.19ZM28.89,16l-.1.29-.66,0L26.6,15.9l-.39-.27.71-.57-.05-.23h.25l.29,0,.73.66.28-.18.48.09.11.15Zm-2.68-.41-1.36-.25L23.8,14.7l.2-.65-.18-.22.56-1,1.5,0,.05-.37-.29-.08-.09-.3-.84-.63h.53v-.68h2.1l-.07,2.31h.33l.36.23.15-.18L28,13l.43.29-1.08.78v.58l-.23.2h-.25l.05.23ZM33.67,19v.15l-.31.1-.86-.44-.26.17-.8-.33-.1.17L29,16.62l.13-.21.31.12h.32l.13-.34.24,0-.06-.55h.49l.37-.38.3.3v-.17l.66-.33,0-.38.29-.29.49.24.89-.26.23-.21h.41l-.19.28.13.53-.41,1,.07,1.25-.22.25.05.68-.26.24Zm-4.19-2.43,0-.17-.17,0-.1-.2L29.4,16h-.51l.12-.47-.11-.15-.48-.09-.28.18-.73-.66-.29,0,.23-.2v-.58l1.08-.78L29,13h.15l0,.19.83,0,.65,0,.47-.18L31,12.91l.61.2.52-.15.83.2,1.33,1h-.41l-.23.21-.89.26-.49-.24-.29.29,0,.38-.66.33v.17l-.3-.3-.37.38h-.49l.06.55-.24,0-.13.34ZM25,31.66l.47.85-.44.33-.39-.15.5-.38-.4-.65-.21,0,.28-.2Zm-.52.41.2-.14.11.1-.15.17Zm2.33.6.44-.21L27,32.7ZM25.75,32l-.38-.08.12-.11Zm0,.35.35-.16.08.22-.25.12Zm8.82-10L34.27,22l0-.27-.38-.15.21.39-.36-.08-.16-.17.17-.22-.06-.3-.7-.52-.43-.1-.15-.45-.57-.27.43.44-.29.31-.21-.29-.43-.12-.23-.52.29-.31-.05-.19L31,19l.28,0,0-.18.1-.17.8.33.26-.17.86.44.31-.1V19l.35.71.93.88-.35-.07-.08.18v.46l.25.18-.23.18.09.33-.25.18Zm1.16.6.17-.14.17.37Zm-7.41-13-.23,0-.39.69-.21-.13-.14.23h-2.1v.68h-.53l.84.63.09.3.29.08-.05.37-1.5,0-.56,1,.18.22-.2.65-2.18-2h-.36l.54.26-.88-.26.17-.15-.26.07-.13-.18-.16.18h.28l-.33.05.4,0-.48,0L20.1,13l-1.28.38L17.39,13l-.87-.39-.26-.3-1-.17-1.62-.68-1-.85-.27.06-1.5-.49-.39-.54L9.06,8.85,8.5,8.07l-.22-.48.52-.21-.34-.24L8.8,6.8l.07-.51-.3-.2L8.19,4.9l-.33-.35h9.55l-.1.52.19.61.42.48-.07.5.26.65.83,1,.18.64.49.59,1.21.37.38.47,2.46-.63.46,0,.12.23.37.07.33-.32-.3-.1.9-.69V8.5l.31-.36-.07-.66L26,6.83l.75-.4,1-.06.8-.28,1.07.26.18-.23.24.43.07-.19.06.34-.78,1.11-.06.55v-.2L29,8.5l.08.21.3-.12-.3.32,0,.19.22-.16-.45,1.36L28.59,10l0-.47Zm8-1.07.39.06L36.31,9Zm-2-2.66,0-.11.31,0-.2-.22.15-.2.43.24-.05.29ZM29.88,7.46l.26-.09,0,.11-.26.28Zm37.3,21.48-.32-.12-.08-.22-.51.26-.67-.14-.19.3.26.43L65,29.38l-.23-.07-.6-.95-.12-.64h-.42l-.47-.86.28-.58L63.39,26l.68-.15v-.18h.13L64,25.48l.21-.35v-.49l1.4.29.26-.21h1l1,.28-.6,1,.15,1,.43.51,0,.21-.23.31v.46ZM65,29.38l-.35.11-.36-.2-.29.05-.24.33-.49,0,0,.17-.38-.09-.18.37-.37.11L61.78,30l-.55-.52,0-.49-.2-.1L61,28.53l.14-1,.41-.44-.24-.28.06-.21-.57-.16.21-.54-.18-.32-.68.05-.77-.87.31-.27L59.53,24l.11-.18.49,0,.5-.36-.38-.17-.11-.4.2-.32.91-.46-.31-.36,1,.59.73.77.23.57,1.29.95v.49l-.21.35.19.19h-.13v.18l-.68.15.06.29-.28.58.47.86h.42l.12.64.6.95Zm-4.07-7.62.31.36-.91.46-.2.32.11.4.38.17-.5.36-.49,0-.11.18.12.44-.31.27.77.87.17.31-.47.49-.37,0-.61.43-.69,0-.35.18v.39l-.16.16-.53-.46-.78.1-.14-.28H55.7l-.28-.2.71.85-.05.5.27.42-.06.3.81.11-.06.29-.69.2-.1.41-.28.31-.07-.19-.41.34-.46.11-.47.55v-.38l-.89.28-.6-.57-.39-1.3-.49-.54-.29,0,.63-.68-.37-.47-.26-.86v-.9l.26-.19.2-.84L52,24.33l-1,.23-.46-.1-.24.16-1-1.06-.65-.14-.39.15-1.18-.07-.18-.4L46.57,23l.14-.79-.47-1.1-.21,0L46,20.87l-.4.14.47-.77.06-.72.46-.75.28-.06.33-.6.74-.24-.74.38.42.64-.2,0,.22.35-.06.31-.57.73.15.44.33.06-.12.19.19.21.68-.31,0-.47-.65-1.27h.19l-.08-.18,1.51-.48.19-.13-.13-.11.45.11-.07-.26-.5.07,0-.54.24-.12.44.85.88,0,.53.31.3.81,2.19-.18.42.4,1,.28,1-.49h.61l-.45-.14-.21.11,0-.19,2.77-.09-.56.25h-.58l0,.17.08-.12.39.58h.3l.36.25.29,0,0-.13.32.32.41.08.3.43-.14.33.22.14-.06.2ZM39.72,28.68l.08-.05,0,.24ZM39.24,22l-.09.13-.07-.25ZM56.6,18.87l-.33.17-.13-.14.17,0-.44,0,.23-.13.2.11.18-.22Zm-5.71-1.23-.4-.17-.09-.24Zm.62-.11-.07.13-.19-.27Zm19.1,9.23L69.77,28l-.23.72-.41.38-1-.22-.6.29-.35-.24.44-.49V28l.23-.31,0-.21L67.46,27l-.15-1,.6-1,1.38.49.46.47.65.33Zm-10.7-7.69-.16.17.06.65-1.09.1.56-.3-.05-.4L59,19.2Zm-1-1.38.15-.27.08.13Zm.59-1.42.09-.2.1.09,0,.21Zm.47-.78-.08.18-.15-.19.15-.28Zm1.43.85,0-.22.22.22-.12.12ZM79.81,34.4l-.11,0,.14-.07Zm31-17.11,1.2-.09.58-.31h1.69l.06.41-.35.17.29.21V18l-1.11.23-.35.63-.15.05-.46-.47.11-.42-1.06-.2,0-.39Zm2,1.85-.13-.15.17,0Zm-1.49-.37.22-.12,0,.19Zm-.2-.53.16-.07v.13ZM47.4,10.49l.08-.37-.37-.35.31-.11-.16-.29.29-.28-.18-.18.12-.13-.09-.32.12-.24.74,0,.85.36.36,0,.24.48.69,0-.09.15L49.87,9v.18l.8.06.7.53-.36.47-.67-.3-.76,0-.32.3-.4.05L48.73,10l-.52.13-.43.88-.3-.22Zm-5.1.14-.4.09-.37-.19-.1.19-.23-.05,0,.22-.66-.18-.35-.42-.37-.09L40,10l.42-.07,1.1.13.64.32Zm5.1-.14-.34-.24-.89.11-.65-.17-.36.06-.21.26-.69-.5.06-.23.25-.06,1.52.29.62-.14,0-.15-.59-.46.14-.5-.8-.22V8.28l.71-.13.55.3h.64l.09.32-.12.13.18.18-.29.28.16.29-.31.11.37.35ZM45.62,9.4l.53.11,0,.17Zm7,.69.21-.18,1.09,0,.6.11,0,.19-.66.37H52.67Zm-8.16-5.5.4.13-.32-.1v.14Zm-4.14,1,.11-.1-.23-.07,0-.17.45.34V5.8Zm5.55-.52.45.17-.5-.05Zm-.67,1.78.37-.27.14.13L46,6.45V6.6l-.17.3L45.22,7Zm-.67-1.42L45,5l-.18-.22.18,0L45,5Zm2.26.37.23.07-.26.08Zm.77.23.23,0-.1.13Zm-.29-.12.29-.05,0,.15ZM60,14.78h-.31l.1-.1-.28-.32.41.06Zm-.78-1.28.21-.06.07.23-.14.21Zm.36-.85h-.47L59,13l-.12-.4h.3l.09-.29ZM58.81,11v-.18l.12.1Zm42.53.56-.41.23,0-.2.29-.13Zm.53,2.67.15-.19.1.14-.08.14Zm1.47-.45.14-.05,0,.16-.15.06Zm-.63,0,.4.38-.31,0ZM102,12.17l.47.11-.35.09Zm1.66-.07.11-.16v.3Zm0,.74.19-.17.14.18-.14.13Zm14.89,4.68-.35-.09-.39.39-.41-.39-.26.29-.28-.24.15-.27,0-.67-.28-.46-.26.07-.25-.38.13-.35-.36-1,.47-.11.14-.81.29-.13.64.64.21-.4.79.09Zm-3.77,3.64.6-.3.41-.68L117.2,20l.62.82-.08.26.18,0,.13.44-.28.46.48-.24v.33l-.36.2v.3l-1,1-1.7-.75v-.41h.18l-.57-.58.15-.13-.09-.34.13,0Zm3.48.65.29.07V24.8l-.87-.44.07-.15-.72-.32-.15-.26,1-1v-.3l.36-.2ZM51,103.28l.48.92-.19-.23-.22.43.47.16.52.9-.1.1h.26l1.25,1.25,1.56.36-.31.56-.69-.07-.53.31-2.09-.53-.41.2Zm-.56-52.69,0-.21.21.17ZM28.31,9.93l-.08.19.34,0-.23.88.13.17-.09.83-.78,1.1h-.33l.07-2.31.14-.23.21.13.39-.69Z"/></g></g></g><g id="Sand"><path class="cls-33" d="M281.1,30.6h22.28l3,13.71-2.57,9.42-24,34.71L273,84.15l-6.43,2.15-11.14-6.86,7.29-25.71-2.57-4.28,3.42-6.86Z"/></g><g id="Sand-1"><g class="cls-11"><text class="cls-34" transform="translate(262.33 57.42)">A<tspan class="cls-35" x="4.6" y="0">r</tspan><tspan x="7.05" y="0">enales </tspan></text><text class="cls-34" transform="translate(261.71 65.82)"><tspan class="cls-36">K</tspan><tspan x="4.25" y="0">ochi</tspan><tspan class="cls-37" x="17.37" y="0">r</tspan><tspan class="cls-38" x="19.78" y="0">ay</tspan><tspan x="26.79" y="0">a</tspan></text></g></g><g id="Threehouses"><path id="Circle" class="cls-13" d="M438.34,20.86h0A1.81,1.81,0,0,1,436.51,19h0a1.8,1.8,0,0,1,1.83-1.83h0A1.8,1.8,0,0,1,440.17,19h0A1.81,1.81,0,0,1,438.34,20.86Z"/><path class="cls-13" d="M438.34,21a2,2,0,1,1,2-2A2,2,0,0,1,438.34,21Zm0-3.66a1.66,1.66,0,1,0,0,3.31,1.66,1.66,0,0,0,0-3.31Z"/><text class="cls-39" transform="translate(442.07 19.03)">Cauchi</text><path id="Circle-2" data-name="Circle" class="cls-13" d="M236.26,94h0a1.81,1.81,0,0,1-1.83-1.83h0a1.8,1.8,0,0,1,1.83-1.83h0a1.8,1.8,0,0,1,1.83,1.83h0A1.81,1.81,0,0,1,236.26,94Z"/><path class="cls-13" d="M236.26,94.15a2,2,0,1,1,2-2A2,2,0,0,1,236.26,94.15Zm0-3.66a1.66,1.66,0,1,0,0,3.31,1.66,1.66,0,0,0,0-3.31Z"/><text class="cls-40" transform="translate(241.02 93.8)">K<tspan class="cls-41" x="3.75" y="0">orich</tspan><tspan class="cls-42" x="17.47" y="0">ay</tspan><tspan class="cls-43" x="23.63" y="0">a</tspan></text><path id="Circle-3" data-name="Circle" class="cls-13" d="M209.12,226.51h0a1.81,1.81,0,0,1-1.83-1.83h0a1.8,1.8,0,0,1,1.83-1.83h0a1.8,1.8,0,0,1,1.83,1.83h0A1.81,1.81,0,0,1,209.12,226.51Z"/><path class="cls-13" d="M209.12,226.68a2,2,0,1,1,2-2A2,2,0,0,1,209.12,226.68Zm0-3.66a1.66,1.66,0,1,0,0,3.31,1.66,1.66,0,0,0,0-3.31Z"/><text class="cls-39" transform="translate(214.01 223.02)">I<tspan class="cls-44" x="1.72" y="0">r</tspan><tspan class="cls-41" x="3.75" y="0">oco</tspan></text></g><text class="cls-45" transform="translate(400.81 370.56) rotate(-3.52)">A</text><text class="cls-45" transform="translate(404.01 370.36) rotate(-4.93)">v</text><text class="cls-45" transform="matrix(0.99, -0.1, 0.1, 0.99, 406.13, 370.17)">.</text><text class="cls-45" transform="translate(407.57 370.03) rotate(-6.45)"> </text><text class="cls-45" transform="translate(408.77 369.9) rotate(-7.63)">C</text><text class="cls-45" transform="matrix(0.99, -0.15, 0.15, 0.99, 412.01, 369.46)">i</text><text class="cls-45" transform="translate(413.29 369.26) rotate(-9.72)">r</text><text class="cls-45" transform="translate(415.05 368.96) rotate(-10.94)">c</text><text class="cls-45" transform="translate(417.62 368.47) rotate(-12.5)">u</text><text class="cls-45" transform="translate(420.4 367.85) rotate(-14.18)">n</text><text class="cls-45" transform="matrix(0.96, -0.27, 0.27, 0.96, 423.21, 367.14)">c</text><text class="cls-45" transform="translate(425.77 366.41) rotate(-17.62)">u</text><text class="cls-45" transform="matrix(0.94, -0.33, 0.33, 0.94, 428.49, 365.55)">n</text><text class="cls-45" transform="matrix(0.93, -0.36, 0.36, 0.93, 431.19, 364.59)">v</text><text class="cls-45" transform="matrix(0.92, -0.39, 0.39, 0.92, 433.59, 363.66)">a</text><text class="cls-45" transform="matrix(0.91, -0.41, 0.41, 0.91, 436.07, 362.59)">l</text><text class="cls-45" transform="matrix(0.9, -0.44, 0.44, 0.9, 437.35, 362.01)">a</text><text class="cls-45" transform="translate(439.81 360.81) rotate(-27.95)">c</text><text class="cls-45" transform="translate(442.17 359.55) rotate(-29.45)">i</text><text class="cls-45" transform="translate(443.38 358.88) rotate(-31.05)">ó</text><text class="cls-45" transform="matrix(0.84, -0.55, 0.55, 0.84, 445.85, 357.39)">n</text><text class="cls-46" transform="translate(433.55 321.75) rotate(13.86)">C</text><text class="cls-46" transform="translate(436.09 322.37) rotate(13.85)">a</text><text class="cls-46" transform="translate(438.19 322.89) rotate(13.86)">l</text><text class="cls-46" transform="translate(439.2 323.14) rotate(13.85)">l</text><text class="cls-46" transform="matrix(0.97, 0.24, -0.24, 0.97, 440.26, 323.4)">e</text><text class="cls-46" transform="translate(442.33 323.91) rotate(13.86)"> </text><text class="cls-46" transform="translate(443.32 324.16) rotate(13.85)">S</text><text class="cls-46" transform="translate(445.71 324.75) rotate(13.85)">o</text><text class="cls-46" transform="translate(447.89 325.28) rotate(13.85)">r</text><text class="cls-46" transform="translate(449.32 325.64) rotate(13.86)">u</text><text class="cls-46" transform="matrix(0.97, 0.24, -0.24, 0.97, 451.5, 326.17)">c</text><text class="cls-46" transform="matrix(0.97, 0.24, -0.24, 0.97, 453.52, 326.67)">o</text><text class="cls-45" transform="matrix(0.26, -0.97, 0.97, 0.26, 459.66, 296.11)">A</text><text class="cls-45" transform="translate(460.51 292.98) rotate(-74.87)">v</text><text class="cls-45" transform="translate(461.07 290.91) rotate(-74.87)">.</text><text class="cls-45" transform="translate(461.45 289.52) rotate(-74.87)"> </text><text class="cls-45" transform="matrix(0.26, -0.97, 0.97, 0.26, 461.77, 288.32)">A</text><text class="cls-45" transform="translate(462.62 285.16) rotate(-74.87)">n</text><text class="cls-45" transform="translate(463.35 282.48) rotate(-74.87)">t</text><text class="cls-45" transform="translate(463.77 280.91) rotate(-74.87)">o</text><text class="cls-45" transform="translate(464.52 278.17) rotate(-74.87)">f</text><text class="cls-45" transform="translate(464.98 276.46) rotate(-74.87)">a</text><text class="cls-45" transform="translate(465.68 273.85) rotate(-74.87)">g</text><text class="cls-45" transform="matrix(0.26, -0.97, 0.97, 0.26, 466.43, 271.1)">a</text><text class="cls-45" transform="matrix(0.26, -0.97, 0.97, 0.26, 467.13, 268.52)">s</text><text class="cls-45" transform="translate(467.8 266.03) rotate(-74.87)">t</text><text class="cls-45" transform="translate(468.24 264.4) rotate(-74.87)">a</text><text class="cls-45" transform="translate(399.25 297.74) rotate(-74.87)">C</text><text class="cls-45" transform="translate(400.1 294.58) rotate(-74.87)">a</text><text class="cls-45" transform="translate(400.81 291.97) rotate(-74.87)">l</text><text class="cls-45" transform="translate(401.15 290.69) rotate(-74.87)">l</text><text class="cls-45" transform="matrix(0.26, -0.97, 0.97, 0.26, 401.49, 289.43)">e</text><text class="cls-45" transform="translate(402.2 286.81) rotate(-74.87)"> </text><text class="cls-45" transform="translate(402.53 285.61) rotate(-74.87)">P</text><text class="cls-45" transform="translate(403.36 282.53) rotate(-74.87)">a</text><text class="cls-45" transform="matrix(0.26, -0.97, 0.97, 0.26, 404.06, 279.93)">g</text><text class="cls-45" transform="translate(404.81 277.16) rotate(-74.87)">a</text><text class="cls-45" transform="translate(405.51 274.57) rotate(-74.87)">d</text><text class="cls-45" transform="translate(406.24 271.86) rotate(-74.87)">o</text><text class="cls-45" transform="matrix(0.26, -0.97, 0.97, 0.26, 406.98, 269.13)">r</text><text class="cls-45" transform="translate(435.31 242.97) rotate(13.58)">V</text><text class="cls-45" transform="matrix(0.97, 0.23, -0.23, 0.97, 438.49, 243.74)">i</text><text class="cls-45" transform="matrix(0.97, 0.23, -0.23, 0.97, 439.79, 244.05)">a</text><text class="cls-45" transform="translate(442.39 244.68) rotate(13.58)">d</text><text class="cls-45" transform="matrix(0.97, 0.23, -0.23, 0.97, 445.13, 245.34)">u</text><text class="cls-45" transform="matrix(0.97, 0.23, -0.23, 0.97, 447.85, 246)">c</text><text class="cls-45" transform="matrix(0.97, 0.23, -0.23, 0.97, 450.38, 246.61)">t</text><text class="cls-45" transform="translate(451.96 246.99) rotate(13.59)">o</text><text class="cls-45" transform="matrix(0.46, 0.89, -0.89, 0.46, 461.9, 115.46)">A</text><text class="cls-45" transform="translate(463.4 118.35) rotate(62.6)">v</text><text class="cls-45" transform="translate(464.37 120.22) rotate(62.6)">.</text><text class="cls-45" transform="matrix(0.46, 0.89, -0.89, 0.46, 465.05, 121.53)"> </text><text class="cls-45" transform="translate(465.62 122.63) rotate(62.6)">C</text><text class="cls-45" transform="matrix(0.46, 0.89, -0.89, 0.46, 467.13, 125.54)">i</text><text class="cls-45" transform="translate(467.73 126.7) rotate(62.6)">r</text><text class="cls-45" transform="translate(468.55 128.29) rotate(62.6)">c</text><text class="cls-45" transform="translate(469.75 130.6) rotate(62.6)">u</text><text class="cls-45" transform="matrix(0.46, 0.89, -0.89, 0.46, 471.05, 133.1)">n</text><text class="cls-45" transform="translate(472.33 135.57) rotate(62.6)">c</text><text class="cls-45" transform="matrix(0.46, 0.89, -0.89, 0.46, 473.53, 137.9)">u</text><text class="cls-45" transform="translate(474.82 140.38) rotate(62.6)">n</text><text class="cls-45" transform="translate(476.1 142.86) rotate(62.6)">v</text><text class="cls-45" transform="translate(477.26 145.08) rotate(62.6)">a</text><text class="cls-45" transform="translate(478.5 147.47) rotate(62.6)">l</text><text class="cls-45" transform="translate(479.1 148.63) rotate(62.6)">a</text><text class="cls-45" transform="translate(480.34 151.02) rotate(62.6)">c</text><text class="cls-45" transform="translate(481.53 153.33) rotate(62.6)">i</text><text class="cls-45" transform="translate(482.15 154.51) rotate(62.6)">ó</text><text class="cls-45" transform="translate(483.45 157.02) rotate(62.6)">n</text><text class="cls-45" transform="translate(405.86 74.11) rotate(65.15)">A</text><text class="cls-45" transform="matrix(0.42, 0.91, -0.91, 0.42, 407.22, 77.06)">v</text><text class="cls-45" transform="translate(408.11 78.98) rotate(65.15)">.</text><text class="cls-45" transform="translate(408.72 80.29) rotate(65.15)"> </text><text class="cls-45" transform="translate(409.25 81.42) rotate(65.15)">H</text><text class="cls-45" transform="translate(410.74 84.65) rotate(65.15)">é</text><text class="cls-45" transform="translate(411.88 87.11) rotate(65.15)">r</text><text class="cls-45" transform="translate(412.61 88.68) rotate(65.15)">o</text><text class="cls-45" transform="matrix(0.42, 0.91, -0.91, 0.42, 413.78, 91.22)">e</text><text class="cls-45" transform="translate(414.93 93.69) rotate(65.15)">s</text><text class="cls-45" transform="translate(416.01 96.02) rotate(65.15)"> </text><text class="cls-45" transform="translate(416.53 97.14) rotate(65.15)">d</text><text class="cls-45" transform="translate(417.72 99.72) rotate(65.15)">e</text><text class="cls-45" transform="matrix(0.42, 0.91, -0.91, 0.42, 418.85, 102.16)">l</text><text class="cls-45" transform="translate(419.41 103.37) rotate(65.15)"> </text><text class="cls-45" transform="translate(419.93 104.49) rotate(65.15)">C</text><text class="cls-45" transform="matrix(0.42, 0.91, -0.91, 0.42, 421.31, 107.47)">h</text><text class="cls-45" transform="translate(422.49 110.02) rotate(65.15)">a</text><text class="cls-45" transform="matrix(0.42, 0.91, -0.91, 0.42, 423.62, 112.45)">c</text><text class="cls-45" transform="translate(424.71 114.82) rotate(65.15)">o</text><text class="cls-45" transform="translate(384.81 186.44) rotate(4.86)">A</text><text class="cls-45" transform="translate(388.02 186.71) rotate(4.86)">v</text><text class="cls-45" transform="translate(390.14 186.89) rotate(4.86)">.</text><text class="cls-45" transform="translate(391.6 187.01) rotate(4.86)"> </text><text class="cls-45" transform="translate(392.82 187.12) rotate(4.86)">S</text><text class="cls-45" transform="translate(395.91 187.38) rotate(4.86)">a<tspan x="2.67" y="0">r</tspan></text><text class="cls-45" transform="translate(400.36 187.76) rotate(4.86)">g</text><text class="cls-45" transform="matrix(1, 0.08, -0.08, 1, 403.18, 188)">e</text><text class="cls-45" transform="translate(405.9 188.23) rotate(4.86)">n</text><text class="cls-45" transform="translate(408.69 188.47) rotate(4.86)">t</text><text class="cls-45" transform="translate(410.29 188.61) rotate(4.86)">o</text><text class="cls-45" transform="translate(413.12 188.85) rotate(4.86)"> </text><g id="Adornments-2" data-name="Adornments"><g id="Inset-map-2" data-name="Inset-map"><rect id="insetmap-rectangle-2" data-name="insetmap-rectangle" class="cls-30" x="5" y="121.36" width="112.6" height="112.6"/><g class="cls-47"><path class="cls-48" d="M14,191.79l.41-.29,1.17.06.68-.37h.45l.86-.73.74-1.31-.47-1.78.18-.72.89.1,1.38-1.17v.77l.91.9.18.48.17,1.22,1.14.31.45.41-.62.75.57.49-.07.41.25.25-.08.77.32.4,0,.87-.21.15.37.41.51,1.56-.28.33.56.91.44.17,1.3,1.42.53.15.95.87L26.53,201l-.37.72-.5.26.67.66.5.14-.1.32.15.26-.32.92-1.35.21-.08.38.48,0-.06.86.36.51-.1.28-.46.09,0,.65,2.05,1.32-.77.7.08,1.32.34.28.56-.08,1.62,2.72v2.25l.83,1.23L30,218.58l.74.54.18.4-.13.43.29.8h-.15l0,.82.39.45v.49l.33.21-.09.17.14.18-.36.35V225l.39.09.19.27,1.6.13,2.69-.63,1.31,1.4L35.18,234l-.93.41H13.19l-.15-.5,0-.73.15-.15-.21-.31.84-1.51.09-.64-.2-.54-.46-.32h-.18l-.24.53L12.5,230l-.22.08.27-.68-.12-.2.17-.55-.1-.78.26-.25-.13-.8.43-.44.22.54.57-.12.78-1.25-.18-.83.26-.69-.09-.43.19-.15-.15-.49.32-.54-.17-.63.65-3.61-.15-.24.28-.2,0-1.75.35-.34.27-1.14-.28-.67.22-.29-.12-.58-.36-.75.07-.32-.38-.47.37-.61-.08-.42-.52-.54.19-.1-.11-1.94.29-.56-.17-.73.37-.49-.24-.65.17-.08-.09-.28.22-.51v-.74l-.17-.61.11-.2-.21-.36.11-.32-.16-.95L15,201l.23-.1,0-.67L14.87,199l-.21-.15.12-1.2L14.13,195l.17-.26-.08-.8.23-1-.13-.25.22-.22Zm84.58,13.27.76-.39.12-.3.37-.07L100,204l.39.15.28-.41-1.86-1.68,2.41-5.3.51,0,.12-.17-.19-.24v-.57h-.33l1.46-4.81.71-.07-.84-.72-1-2.22h.26v-.15l-.68-1.17-.09-.61.29,0-.9-.83-.79.48-.45-.45-.4,0-.21-.48-.24.06-.12-.25-.36,0-.16-.37-.82-.85.06-.53-.29,0,0-.85-.37-.36.11-.54-.12-.3.3-1.65.67-.56-.12-.66.07-.26.27-.13-.1-.77-.47,0-.29.43-12.06-.4-.45-5.7L82,168.35l2.21-.08L84,164.85l-.34-.08-.12-.69-.47-.71.09-.33-.41-.37,0-.53-.29-.38.09-.66.26-.12.41-.63-.23-.07,0-.3h-.23v-.38l-.17,0,.14-.23-.25,0,.16-.45h-.39l0-.17-.2.08-.49-.46-.25.14-.23-.28,0,.12-.5-.22,0-.16-.71-.29-.32-.56-.59.07v-.3l.15-.06-.2-.09-.2,0-.07.19-.26-.15-.08.29-.53-.19-.08.23-.71-.43-.08.19-1.11.36L75,157l-.08-.23-.32.21-.49-.12-.45.3-.09-.18-.09.15H73l-.26-.76-.52-.18,0-.28L72,156l-.1-.33-.68-.48v-.71l-.23,0-.12-.36-.19.28-.14-.3-.41.34-.82-.17,0-.15-.12.11-.29-.46-.33.13-.73-.27.06-.22-.19,0-.15-.36-.79.37-.23-.16-.06-.38-.31,0-.29-.62-.8-.12-.27-.72-.25-.13.14-.26-.25,0,0-.15-.45-.34-.06.21-.19-.14,0,.23-.33,0,.07.21-.41-.06-1-.52v-.31l-.43,0-.87-.68-1.12-.31-.32.24-.38-.11-.07.38-.35.21-1-.32-.21.16-.08-.22-.23.26-.05-.33-.38-.08-.45.32v-.3l-.77-.08-.74-.63.14-.45-.13-.48-.28.11-1.1-.46v-.64l-.2.09-.14.41-.09-.46-.24-.05-.23.2.22-.39-.23-.34-.54.12-.22-.25-.18.19-.42-.18.15-.66-.39-.21.08-.59-.17-.52-.68.06v.25l-.54-.36.26-.33-.09-.6.16-.31-.64-.21-.22-1,.31-.22-.36-.11-.13-.4,0-.26.25-.13-.22-.08-.08-.36.54-.31-.12-.42.35-.31-.25-.41.14,0-.07-.37-.62-.51.15-.19,0-.7-.45-.35.12-.28-.21-.73.26-.21v-.51l.7-1.09-.3-2,.32-.65-.63-1-.47-.2V130l-.38.24v.39l-.45.18,0,.24-.48,0-.29-.4-.29.2.19-.42-.41.23-.22-.33-.13.41,0-.26-.44.27-.06-.29h-.34l-.37.17.08.18-.14.06-.61-.2-.15.22-.07-.22h-.34l-.36.36-.22-.16-.34.23-.43,0-.56.42-.06-.24-.87.1-.13.18-.28-.08-.12.41-.13-.11-.13.23-.61.22-.5.59h-.25l-.55.75-.3.07-.14.42-.76.22,0,.18-.34.16-1-.14v.42l-.27.11-.38-.14-.25.57-.87.31-.48.7-.27,0-.21.75-1.08-.48-1.18.1-.49.4v.44l-.63.59-.3.69-1,.43-.08.23-.25-.13-.38.13-.39.42-1.19.25-.33-.52.11-.45-.29.05,0-.18-.8.22-.31-.22-.27.16-.32-.26-.56,0-.79-.28H19.57l-1.13.23-.21-.31-1.14-.06-.9.5-.2,0-.45.39-1,.19-.88-.22-.6-.74-.62.48-.08-8.32.61-.38.08-.35-.41-.53-.12-.55.31.09-.1-.29.45-.2-.12-.31h.13l.06-.26-.68.12-.47.59-.46.31-.15-.07-.29.55-.45.13-.45.58-.29.07-.2.47h-.4l-.73.4-.4.67-.58.18-.31-.18-.22.23H4.55V120.91l56.75.6,56.75-.6V233.68l-.34-.12-.29-.43.07-1.5-.2,0-.13-.54-.39-.12.09-.44-.26-.69.4-.73-.35-.46v-.3l.21-.15-.16-.3.15-.16-.12-.32-.39,0-.46-2.25.32-.66,0-.82-.76-.78-.2-.56.06-.64-.32,0-.36-.74-2.54-.08-.2-.31-.54-.14L111,220l-.19-.72-.79.16-.35.76-.59.35,0,.14-.45-.34-.11.35-.2-.21-.2.18-.11-.13-.07.3-.28.14-.29-.42-.14.15-.63-.32-.59.21-.2-.19-.51.08-.12-.19-.25.31-.4-.25-.18.2-.37-.1-.23-.26-1.18-.17-.23-.59-.67,0-.06.18-.14-.1v.25l-.29-.07-.16.2-.17-.24-.24.13-.46-.13-.09-.28-.35.07-.12-.38.31-.26.2-.61-.09-.16.25-.16-.39-.27.43-.53-.28-.23.45-.4-.37-.32.16-.42-.3-.19-.07-.29.78-1.46-.46-.37.48-.42,0-.93-.15-.42.34-.45v-.29l-.3,0-.18-.3-.27-.06.48-.51-.24-.3-.42.07,0-.15.18-.26.46,0-.39-.57-.23.29-.23,0,.12-.43-.3-.22.1-.3-.15-.44.15-.57-.6-.49-.06-.83-.47,0v-.24l.28-.24ZM36.16,224.81l-.14-.19,1.24-1,0-.87h.4l.31-.37,1-.41.29-1.48,2.7-.78.4-.37.51-2.28,1,.41.25.31,0,.32.82.12,1.18,1.29.68,0,.59-.24.58.16,3.38-.15,1.83.85.66,0,.75.71-.25.24,0,.35,1.08,1.29-.21.73.33.37-.06.23.4.18.09,1.28.47-1.08-.05-.85.19-.72.7-1.13.18,0,.11-.7.25-.56.21,0,.22-1,.3-.16.1-.64h1.61l.21.41.12-.42h5.92l0,.9.16.4.12-.17.79.78.11-.08.21.54.24,0,.36.45.32-.11.65.72.65.14,0,.32.34,0,.15.27-.32.38.4.28.1-.1-.1.35.19.11-.12,0,1.2,1.35.32,1.15.8.44,1.36,1.44.69.17.53.85,1.19.38.5.53,1,.45.17.7.69,1,.33-.1.57.47,1.67.26.17.09v.31l1,.13.51.45,1.36.09.93-.24.92.56H34.25l.93-.41,2.29-7.8Zm50.37,9.61-.92-.56-.93.24L83.32,234l-.51-.45-1-.13v-.31l-.17-.09L80,232.77l-.57-.47-.33.1-.69-1-.17-.7-1-.45-.5-.53-1.19-.38-.53-.85-.69-.17-1.36-1.44-.8-.44-.32-1.15-1.2-1.35.12,0-.19-.11.1-.35-.1.1-.4-.28.32-.38-.15-.27-.34,0,0-.32-.65-.14-.65-.72-.32.11-.36-.45-.24,0-.21-.54,2.64-8.81,0-3.67,2.39-3.5,1.29-3.35,7.86-1.31L86,198.69l6,.37,6.59,3.53-.27.27-.06.65.18.14.34,1.09-.17.32.26.27-.28.24v.24l.47,0,.06.83.6.49-.15.57.15.44-.1.3.3.22-.12.43.23,0,.23-.29.39.57-.46,0-.18.26,0,.15.42-.07.24.3-.48.51.27.06.18.3.3,0v.29l-.34.45.15.42,0,.93-.48.42.46.37-.78,1.46.07.29.3.19-.16.42.37.32-.45.4.28.23-.43.53.39.27-.25.16.09.16-.2.61-.31.26.12.38.35-.07.09.28.46.13.24-.13.17.24.16-.2.29.07v-.25l.14.1.06-.18.67,0,.23.59,1.18.17.23.26.37.1.18-.2.4.25.25-.31.12.19.51-.08.2.19.59-.21.63.32.14-.15.29.42.28-.14.07-.3.11.13.2-.18.2.21.11-.35.45.34,0-.14.59-.35.35-.76.79-.16.19.72.34.35.54.14.2.31,2.54.08.36.74.32,0-.06.64.2.56.76.78,0,.82-.32.66.46,2.25.39,0,.12.32-.15.16.16.3-.21.15v.3l.35.46-.4.73.26.69-.09.44.39.12.13.54.2,0-.07,1.5.29.43.34.12v.74Zm-63.67-58,.32-.21.29.17.2-.21.2,0-.27.56,0-.27-.28.28-.16-.19-.16.09.39.52,0,.51-.52.65.43.48.15.79-1.08.41-.11.51-1.44,1.62.15.38-1.26.62-.62.88.48.09.75.58v.91l-1.38,1.17-.89-.1-.18.72.47,1.78-.74,1.31-.86.73h-.45l-.68.37-1.17-.06-.41.29L10.5,189.3l0-.29-.37-.4-.46-.27-.6-.06-.62-.63L7.3,187l-.23.1.28-.52L7,184.79l-.78-.87-1.65-.5V132.1H7.12l.22-.23.31.18.58-.18.4-.67.73-.4h.4l.2-.47.29-.07.45-.58.45-.13.29-.55.15.07.46-.31.47-.59.68-.12-.06.26H13l.12.31-.45.2.1.29-.31-.09.12.55.41.53-.08.35-.61.38.08,8.32.62-.48.6.74.88.22,1-.19.45-.39.2,0,.9-.5,1.14.06.21.31,1.13-.23L22.85,144,26,149.77l-.61.93.2.32-.11.24-.54.32-.2.71-.25.09.08.54-.16.08.23.64-.2.62.23.79L24.15,157,24,157l-.08.58-.37.13.09.2-.31-.08-.21.24.29.47.35.16-.13.19.53.19-.45.57.13.38-.1.2.61.5.39.71-.16.12.21.37-1.11.17.06.19-.26.36.18.48-1.13,1,0,.41H22l0,.53-.22.2.23.38-.09.16-.79.3-.05,1.15.58,1.07.6.36.48.71-.38,0-.14.38-.45.43.13.61-.34-.17-.28.73-.42-.22L21,171l.18.21L21,171l-.38.05.12.14-.12.06-.06-.31-.64-.54.07-.12-.77-.13,0-.47-.33-.35-.5.14.42.38-.35-.19-.22.26-.24-.33,0,.24-.13-.22-.13.18-.27-.05.13.11-.18,0,.31.22-.24-.05.13.18.11-.13.09-.11.37.15-.58.17-.21-.14-.15.2,0-.17,0,.39.87,1.38,0,.34.25.06,0,.15-.26-.07.41.35-.53-.1-.23-.6-.47-.37-.08.1.12.3-.23.32-.12-.06v.25l-.32-.1-.14.17,0,.43.33.35-.21.16.88.29.2.36.12-.15.43.13V174l-.47-.25.06-.35.25-.17.27.35.05.58.41.05.15.14.17.15.22.2.51-.08.6.28-.39-.25-.21-.12-.68,0h-.17l-.05-.15-.05-.19.05.19,0,.12.18,0,.68.11.21,0,.46.1.18.58-.18.27.15-.23-.09-.14-.43.59.1.12H20l.15.34.73-.2-.06.21.24.27.47.05.25.34.17-.28.95-.13Zm-4.22-2.22.1-.19.19.17ZM20,171.47l.08,0,.12.24Z"/></g><g class="cls-47"><path class="cls-49" d="M67.58,220.52l-.11.08-.79-.78-.12.17-.16-.4,0-.9H60.5l-.12.42-.21-.41H58.56l-.1.64-.3.16-.22,1-.21,0-.25.56-.11.7-.18,0-.7,1.13-.19.72.05.85-.47,1.08-.09-1.28-.4-.18.06-.23-.33-.37.21-.73-1.08-1.29,0-.35.25-.24-.75-.71-.66,0-1.83-.85-3.38.15-.58-.16-.59.24-.68,0-1.18-1.29-.82-.12,0-.32-.25-.31-1-.41-.51,2.28-.4.37-2.7.78L38.94,222l-1,.41-.31.37h-.4l0,.87-1.24,1,.14.19-2.69.63-1.6-.13-.19-.27-.39-.09v-1.53l.36-.35-.14-.18.09-.17-.33-.21V222l-.39-.45,0-.82h.15l-.29-.8.13-.43-.18-.4-.74-.54.08-1.59-.83-1.23v-2.25l-1.62-2.72-.56.08-.34-.28-.08-1.32.77-.7-2.05-1.32,0-.65.46-.09.1-.28-.36-.51.06-.86-.48,0,.08-.38,1.35-.21.32-.92-.15-.26.1-.32-.5-.14-.67-.66.5-.26.37-.72,1.15-1.38-.95-.87-.53-.15-1.3-1.42-.44-.17-.56-.91.28-.33-.51-1.56-.37-.41.21-.15,0-.87-.32-.4.08-.77-.25-.25.07-.41-.57-.49.62-.75-.45-.41L21.58,189l-.17-1.22-.18-.48-.91-.9v-1.68l-.75-.58L19.1,184l.62-.88,1.26-.62-.15-.38,1.44-1.62.11-.51,1.08-.41.3.43,0,.42.23.23.24,0-.4-.26.19-.58-.61-.63v-.41l.75.32.52-.08.11-.22-.18-.17.22,0-.12-.1.16-.16-1-.15,0-.22,1.55-.15.36-.52-.4-.15h.29l0-.15.42.22.38-.05-.17-.29.18,0,.06-.26-.29-.4-.33.18-1-.3-.19.34-.16-.06,0-.39-.13.07-.3-.71.28-.19-.06.21.26-.07.13-.4.42.18.3-.69-.33-.09-.17.19-.45-.22-.25.14-.66-.39-.81-1.21-.59-.1.26-.1-.12-.16-.63.06,0-.28-.32-.24.16-.31-.34-.18.28-.73.34.17-.13-.61.45-.43.14-.38.38,0-.48-.71-.6-.36-.58-1.07.05-1.15.79-.3.09-.16-.23-.38.22-.2,0-.53h.5l0-.41,1.13-1-.18-.48.26-.36-.06-.19,1.11-.17-.21-.37.16-.12-.39-.71-.61-.5.1-.2-.13-.38.45-.57-.53-.19.13-.19-.35-.16-.29-.47.21-.24.31.08-.09-.2.37-.13L24,157l.18-.06.48-1.91-.23-.79.2-.62-.23-.64.16-.08-.08-.54.25-.09.2-.71.54-.32.11-.24-.2-.32.61-.93L22.85,144l-3.28-5.22h2.37l.79.28.56,0,.32.26.27-.16.31.22.8-.22,0,.18.29-.05-.11.45.33.52,1.19-.25.39-.42.38-.13.25.13.08-.23,1-.43.3-.69.63-.59v-.44l.49-.4,1.18-.1,1.08.48.21-.75.27,0,.48-.7.87-.31.25-.57.38.14.27-.11v-.42l1,.14.34-.16,0-.18.76-.22.14-.42.3-.07.55-.75h.25l.5-.59.61-.22.13-.23.13.11.12-.41.28.08.13-.18.87-.1.06.24.56-.42.43,0,.34-.23.22.16.36-.36h.34l.07.22.15-.22.61.2.14-.06-.08-.18.37-.17h.34l.06.29.44-.27,0,.26.13-.41.22.33.41-.23-.19.42.29-.2.29.4.48,0,0-.24.45-.18v-.39l.38-.24v-.18l.47.2.63,1-.32.65.3,2-.7,1.09v.51l-.26.21.21.73-.12.28.45.35,0,.7-.15.19.62.51.07.37-.14,0,.25.41-.35.31.12.42-.54.31.08.36.22.08-.25.13,0,.26.13.4.36.11-.31.22.22,1,.64.21-.16.31.09.6-.26.33.54.36v-.25l.68-.06.17.52-.08.59.39.21-.15.66.42.18.18-.19.22.25.54-.12.23.34-.22.39.23-.2.24.05.09.46.14-.41.2-.09v.64l1.1.46.28-.11.13.48-.14.45.74.63.77.08v.3l.45-.32.38.08.05.33.23-.26.08.22.21-.16,1,.32.35-.21.07-.38.38.11.32-.24,1.12.31.87.68.43,0v.31l1,.52.41.06-.07-.21.33,0,0-.23.19.14.06-.21.45.34,0,.15.25,0-.14.26.25.13.27.72.8.12.29.62.31,0,.06.38.23.16.79-.37.15.36.19,0-.06.22.73.27.33-.13.29.46.12-.11,0,.15.82.17.41-.34.14.3.19-.28.12.36.23,0v.71l.68.48.1.33.19,0,0,.28.52.18.26.76h.48l.09-.15.09.18.45-.3.49.12.32-.21L75,157l.69.25,1.11-.36.08-.19.71.43.08-.23.53.19.08-.29.26.15.07-.19.2,0,.2.09-.15.06v.3l.59-.07.32.56.71.29,0,.16.5.22,0-.12.23.28.25-.14.49.46.2-.08,0,.17h.39l-.16.45.25,0-.14.23.17,0V160H83l0,.3.23.07-.41.63-.26.12-.09.66.29.38,0,.53.41.37-.09.33.47.71.12.69.34.08.19,3.42-2.21.08L84.23,171l.45,5.7,12.06.4.29-.43.47,0,.1.77-.27.13-.07.26.12.66-.67.56-.3,1.65.12.3-.11.54.37.36,0,.85.29,0-.06.53.82.85.16.37.36,0,.12.25.24-.06.21.48.4,0,.45.45.79-.48.9.83-.29,0,.09.61.68,1.17V188h-.26l1,2.22.84.72-.71.07-1.46,4.81h.33v.57l.19.24-.12.17-.51,0-2.41,5.3,1.86,1.68-.28.41L100,204l-.14.26-.37.07-.12.3-.76.39.17-.32-.34-1.09-.18-.14.06-.65.27-.27L92,199.06l-6-.37-4.31,1.19-7.86,1.31-1.29,3.35L70.18,208l0,3.67ZM23.87,176.17l-.2,0-.2.21-.29-.17-.32.21.07-.16-.23-.14.34-.26-.4-.66,2.09,1.3,0,.26-.31-.05Zm-1.49-1.47.21.43-.23-.17v.15l-.3-.45Z"/></g><circle id="insetmap-highlight" class="cls-50" cx="36.49" cy="188.95" r="3.75"/><rect id="insetmap-rectangle2" class="cls-51" x="5" y="121.36" width="112.6" height="112.6"/></g></g><text class="cls-52" transform="translate(46.16 179.91)">B<tspan x="3.83" y="0">O</tspan><tspan x="7.96" y="0">L</tspan><tspan x="11.23" y="0">I</tspan><tspan x="12.96" y="0">V</tspan><tspan x="16.89" y="0">I</tspan><tspan x="18.71" y="0">A</tspan></text><text class="cls-53" transform="translate(41.42 190.52)">O<tspan x="2.69" y="0">r</tspan><tspan x="4.09" y="0">u</tspan><tspan x="6.26" y="0">r</tspan><tspan x="7.59" y="0">o</tspan></text><text class="cls-54" transform="translate(9.28 212.98) rotate(-90)">O<tspan x="1.37" y="0">c</tspan><tspan x="2.38" y="0">é</tspan><tspan x="3.44" y="0">a</tspan><tspan x="4.5" y="0">n</tspan><tspan x="5.6" y="0">o</tspan><tspan x="6.68" y="0"> </tspan><tspan x="7.18" y="0">P</tspan><tspan x="8.45" y="0">a</tspan><tspan x="9.49" y="0">c</tspan><tspan x="10.51" y="0">í</tspan><tspan x="11.05" y="0">f</tspan><tspan x="11.75" y="0">i</tspan><tspan x="12.29" y="0">c</tspan><tspan x="13.31" y="0">o</tspan></text><text class="cls-55" transform="translate(89.54 144.56)">B<tspan x="2.5" y="0">R</tspan><tspan x="4.95" y="0">A</tspan><tspan x="7.57" y="0">S</tspan><tspan x="9.95" y="0">I</tspan><tspan x="11.04" y="0">L</tspan></text><text class="cls-55" transform="translate(8.04 161.46)">P<tspan x="2.52" y="0">E</tspan><tspan x="4.79" y="0">R</tspan><tspan x="7.26" y="0">Ú</tspan></text><text class="cls-55" transform="translate(17.53 222.36)">C<tspan x="2.61" y="0">H</tspan><tspan x="5.44" y="0">I</tspan><tspan x="6.55" y="0">L</tspan><tspan x="8.7" y="0">E</tspan></text><text class="cls-55" transform="translate(45.89 231.07)">A<tspan x="2.63" y="0">R</tspan><tspan x="5.07" y="0">G</tspan><tspan x="7.81" y="0">E</tspan><tspan x="10.07" y="0">N</tspan><tspan x="12.86" y="0">T</tspan><tspan x="15.25" y="0">I</tspan><tspan x="16.35" y="0">N</tspan><tspan x="19.23" y="0">A</tspan></text><text class="cls-55" transform="translate(75.8 220.6)">P<tspan x="2.23" y="0">A</tspan><tspan x="4.87" y="0">R</tspan><tspan x="7.32" y="0">A</tspan><tspan x="9.92" y="0">G</tspan><tspan x="12.64" y="0">U</tspan><tspan x="15.18" y="0">A</tspan><tspan x="17.62" y="0">Y</tspan></text><polygon class="cls-56" points="63.1 55.36 63.1 54.94 62 54.35 61.01 54.3 58.98 54.71 58.36 55.85 58.37 56.46 57.93 57.93 57.74 57.63 56.44 57.63 55.98 58.77 55.63 57.87 54.34 57.77 53.81 57.36 53.72 57.74 53.22 57.92 52.71 58.65 51.9 58.67 51.94 58.3 51.55 56.76 51.13 56.28 51.24 55.95 50.9 55.72 50.88 55.26 51.16 55.07 50.96 54.85 51.29 54.45 50.66 53.87 50.44 52.92 50.54 52.8 50.27 52.68 50.06 52.12 49.86 51.85 50.59 51.12 50.71 51.29 50.57 50.97 50.78 51.02 50.66 50.84 51.1 50.61 50.78 50.58 50.71 50.4 50.94 50.24 50.63 50.18 50.23 49.76 50.47 49.43 50.19 48.88 50.63 48.21 50.8 48.18 50.52 47.54 51 46.15 49.94 44.32 51.13 44.51 51.72 43.98 52.1 44.04 53.35 43.08 54.32 42.9 54.58 43.03 54.77 42.85 54.89 43.47 54.73 43.94 54.93 44.37 54.8 44.68 55.17 45.56 55.55 45.66 56.03 46.15 56.61 46.07 57.18 46.37 57.34 46.28 57.8 46.76 58.48 46.88 58.84 47.38 59.81 47.32 60.44 47.68 60.7 49.23 60.33 49.25 60.71 49.68 60.79 50.63 62.91 50.63 62.73 51.3 62.83 51.74 63.58 52.2 63.92 53.01 63.55 53.82 63.64 53.95 63.13 54.87 63.44 55.14 63.1 55.36"/><text class="cls-53" transform="translate(17.55 57.27)">Océano <tspan class="cls-57" x="-0.5" y="4.8">P</tspan><tspan x="1.98" y="4.8">acífico</tspan></text><text class="cls-53" transform="translate(85.09 72.53)">Océano <tspan class="cls-58" x="-1.2" y="4.8">A</tspan><tspan x="1.36" y="4.8">tlántico</tspan></text><text class="cls-59" transform="translate(51.05 53.22)">B<tspan x="1.93" y="0">O</tspan><tspan x="3.99" y="0">L</tspan><tspan x="5.6" y="0">I</tspan><tspan x="6.5" y="0">V</tspan><tspan x="8.45" y="0">I</tspan><tspan x="9.35" y="0">A</tspan></text></svg>